<?xml version="1.0" encoding="UTF-8" standalone="no"?>
<svg
   width="144px"
   height="144px"
   style="enable-background:new 0 0 144 144"
   version="1.1"
   viewBox="19 19 106 106"
   xml:space="preserve"
   id="svg8"
   sodipodi:docname="xmpp_proxy.svg"
   inkscape:version="1.1.2 (0a00cf5339, 2022-02-04)"
   xmlns:inkscape="http://www.inkscape.org/namespaces/inkscape"
   xmlns:sodipodi="http://sodipodi.sourceforge.net/DTD/sodipodi-0.dtd"
   xmlns:xlink="http://www.w3.org/1999/xlink"
   xmlns="http://www.w3.org/2000/svg"
   xmlns:svg="http://www.w3.org/2000/svg"
   xmlns:rdf="http://www.w3.org/1999/02/22-rdf-syntax-ns#"
   xmlns:cc="http://creativecommons.org/ns#"
   xmlns:dc="http://purl.org/dc/elements/1.1/"><defs
     id="defs12"><inkscape:path-effect
       effect="spiro"
       id="path-effect495"
       is_visible="true"
       lpeversion="1" /><linearGradient
       id="_Linear1"
       x1="0"
       y1="0"
       x2="1"
       y2="0"
       gradientUnits="userSpaceOnUse"
       gradientTransform="matrix(-4.9785904,-56.90545,56.90545,-4.9785904,74.01045,105.29409)"><stop
         offset="0"
         style="stop-color:rgb(247,76,0);stop-opacity:1"
         id="stop51" /><stop
         offset="0.33"
         style="stop-color:rgb(247,76,0);stop-opacity:1"
         id="stop53" /><stop
         offset="1"
         style="stop-color:rgb(244,150,0);stop-opacity:1"
         id="stop55" /></linearGradient><linearGradient
       id="_Linear3"
       x1="0"
       y1="0"
       x2="1"
       y2="0"
       gradientUnits="userSpaceOnUse"
       gradientTransform="scale(1,-1)"><stop
         offset="0"
         style="stop-color:rgb(204,58,0);stop-opacity:1"
         id="stop67" /><stop
         offset="0.15"
         style="stop-color:rgb(204,58,0);stop-opacity:1"
         id="stop69" /><stop
         offset="0.74"
         style="stop-color:rgb(247,76,0);stop-opacity:1"
         id="stop71" /><stop
         offset="1"
         style="stop-color:rgb(247,76,0);stop-opacity:1"
         id="stop73" /></linearGradient><linearGradient
       id="_Linear2"
       x1="0"
       y1="0"
       x2="1"
       y2="0"
       gradientUnits="userSpaceOnUse"
       gradientTransform="matrix(1,0,0,-1,0,1.23438e-6)"><stop
         offset="0"
         style="stop-color:rgb(204,58,0);stop-opacity:1"
         id="stop58" /><stop
         offset="0.15"
         style="stop-color:rgb(204,58,0);stop-opacity:1"
         id="stop60" /><stop
         offset="0.74"
         style="stop-color:rgb(247,76,0);stop-opacity:1"
         id="stop62" /><stop
         offset="1"
         style="stop-color:rgb(247,76,0);stop-opacity:1"
         id="stop64" /></linearGradient><linearGradient
       id="_Linear2-8"
       x1="0"
       y1="0"
       x2="1"
       y2="0"
       gradientUnits="userSpaceOnUse"
       gradientTransform="matrix(1,0,0,-1,0,1.23438e-6)"><stop
         offset="0"
         style="stop-color:rgb(204,58,0);stop-opacity:1"
         id="stop58-7" /><stop
         offset="0.15"
         style="stop-color:rgb(204,58,0);stop-opacity:1"
         id="stop60-9" /><stop
         offset="0.74"
         style="stop-color:rgb(247,76,0);stop-opacity:1"
         id="stop62-2" /><stop
         offset="1"
         style="stop-color:rgb(247,76,0);stop-opacity:1"
         id="stop64-0" /></linearGradient><linearGradient
       id="_Linear2-8-9"
       x1="0"
       y1="0"
       x2="1"
       y2="0"
       gradientUnits="userSpaceOnUse"
       gradientTransform="matrix(1,0,0,-1,0,1.23438e-6)"><stop
         offset="0"
         style="stop-color:rgb(204,58,0);stop-opacity:1"
         id="stop58-7-2" /><stop
         offset="0.15"
         style="stop-color:rgb(204,58,0);stop-opacity:1"
         id="stop60-9-2" /><stop
         offset="0.74"
         style="stop-color:rgb(247,76,0);stop-opacity:1"
         id="stop62-2-8" /><stop
         offset="1"
         style="stop-color:rgb(247,76,0);stop-opacity:1"
         id="stop64-0-9" /></linearGradient><linearGradient
       id="SVGID_right_"
       y2="1.279e-13"
       gradientUnits="userSpaceOnUse"
       x2="-1073.2"
       gradientTransform="matrix(0.27303206,0,0,0.27303206,372.24137,34.034124)"
       y1="126.85"
       x1="-1073.2"><stop
         stop-color="#1b3967"
         offset=".011"
         id="stop2" /><stop
         stop-color="#13b5ea"
         offset=".467"
         id="stop4" /><stop
         stop-color="#002b5c"
         offset=".9945"
         id="stop6" /></linearGradient><linearGradient
       inkscape:collect="always"
       xlink:href="#SVGID_right_"
       id="linearGradient10216"
       gradientUnits="userSpaceOnUse"
       gradientTransform="matrix(0.27303206,0,0,0.27303206,588.78306,107.18446)"
       x1="-1073.2"
       y1="126.85"
       x2="-1073.2"
       y2="1.279e-13" /><linearGradient
       inkscape:collect="always"
       xlink:href="#SVGID_right_"
       id="linearGradient10222"
       gradientUnits="userSpaceOnUse"
       gradientTransform="matrix(0.27303206,0,0,0.27303206,694.75439,46.569053)"
       x1="-1073.2"
       y1="126.85"
       x2="-1073.2"
       y2="1.279e-13" /><linearGradient
       id="SVGID_right_-6"
       y2="1.279e-13"
       gradientUnits="userSpaceOnUse"
       x2="-1073.2"
       gradientTransform="matrix(0.26367216,0,0,0.26367216,474.98437,36.640517)"
       y1="126.85"
       x1="-1073.2"><stop
         stop-color="#1b3967"
         offset=".011"
         id="stop2-7" /><stop
         stop-color="#13b5ea"
         offset=".467"
         id="stop4-5" /><stop
         stop-color="#002b5c"
         offset=".9945"
         id="stop6-3" /></linearGradient><linearGradient
       id="SVGID_left_"
       y2="1.279e-13"
       gradientUnits="userSpaceOnUse"
       x2="-1073.2"
       gradientTransform="matrix(-0.26367216,0,0,0.26367216,-102.82466,36.64026)"
       y1="126.85"
       x1="-1073.2"><stop
         stop-color="#1b3967"
         offset=".011"
         id="stop9" /><stop
         stop-color="#13b5ea"
         offset=".467"
         id="stop11" /><stop
         stop-color="#002b5c"
         offset=".9945"
         id="stop13" /></linearGradient><linearGradient
       inkscape:collect="always"
       xlink:href="#_Linear1"
       id="linearGradient11199"
       x1="211.15358"
       y1="111.84278"
       x2="177.44066"
       y2="41.632111"
       gradientUnits="userSpaceOnUse"
       gradientTransform="matrix(1.3584906,0,0,1.3584906,-25.811321,-25.811321)" /><linearGradient
       inkscape:collect="always"
       xlink:href="#_Linear1"
       id="linearGradient11598"
       x1="165.16576"
       y1="26.118017"
       x2="228.40903"
       y2="126.80087"
       gradientUnits="userSpaceOnUse" /></defs><sodipodi:namedview
     id="namedview10"
     pagecolor="#ffffff"
     bordercolor="#666666"
     borderopacity="1.0"
     inkscape:pageshadow="2"
     inkscape:pageopacity="0.0"
     inkscape:pagecheckerboard="0"
     showgrid="false"
     showguides="false"
     inkscape:guide-bbox="true"
     inkscape:zoom="3.0592189"
     inkscape:cx="89.075025"
     inkscape:cy="131.24265"
     inkscape:window-width="1600"
     inkscape:window-height="873"
     inkscape:window-x="0"
     inkscape:window-y="27"
     inkscape:window-maximized="1"
     inkscape:current-layer="svg8"><sodipodi:guide
       position="90.455402,23.467855"
       orientation="0,-1"
       id="guide565" /><sodipodi:guide
       position="82.773489,12.518894"
       orientation="0,-1"
       id="guide602" /></sodipodi:namedview><title
     id="title2">Rust programming language logo</title><metadata
     id="metadata4"><rdf:RDF><cc:Work
         rdf:about=""><dc:format>image/svg+xml</dc:format><dc:type
           rdf:resource="http://purl.org/dc/dcmitype/StillImage" /><dc:title>Rust programming language logo</dc:title></cc:Work></rdf:RDF></metadata><ellipse
     style="fill:#000000;stroke:none;stroke-width:6.40417;stroke-linecap:round;stroke-linejoin:round"
     id="path11280"
     cx="186.03355"
     cy="78.00135"
     rx="34.505463"
     ry="10.389123" /><path
     id="path6"
     style="stroke-width:1.35849"
     d="M 72.558594 0.890625 C 71.841311 0.890625 71.187105 1.2587537 70.820312 1.8632812 L 67.125 7.8398438 C 66.543566 7.8873901 65.960766 7.9459166 65.384766 8.0097656 L 60.603516 2.875 C 60.118534 2.3560566 59.398078 2.1225581 58.701172 2.2597656 C 58.001549 2.3996902 57.425566 2.8902164 57.179688 3.5585938 L 54.734375 10.119141 C 54.166526 10.282159 53.605045 10.454256 53.050781 10.630859 L 47.371094 6.5429688 C 46.793735 6.1259121 46.042106 6.0380849 45.388672 6.3125 C 44.732521 6.5841981 44.260598 7.1774997 44.146484 7.8730469 L 43.019531 14.789062 C 42.497871 15.059402 41.981496 15.337169 41.470703 15.621094 L 35.099609 12.714844 C 34.451609 12.418693 33.699298 12.478321 33.101562 12.875 C 32.509269 13.268962 32.164236 13.945759 32.191406 14.65625 L 32.435547 21.679688 C 31.981811 22.042396 31.532117 22.412166 31.087891 22.787109 L 24.253906 21.169922 C 23.559718 21.008261 22.828813 21.216108 22.326172 21.71875 C 21.820813 22.22275 21.614325 22.94822 21.777344 23.646484 L 23.380859 30.480469 C 23.007274 30.923337 22.638108 31.372436 22.275391 31.826172 L 15.251953 31.580078 C 14.54418 31.559701 13.866619 31.899886 13.472656 32.492188 C 13.075977 33.081764 13.015754 33.838159 13.310547 34.490234 L 16.216797 40.875 C 15.934231 41.387151 15.655105 41.903526 15.384766 42.423828 L 8.4707031 43.546875 C 7.7683635 43.660988 7.1758258 44.131561 6.9082031 44.789062 C 6.636505 45.44793 6.7243323 46.202871 7.1386719 46.773438 L 11.228516 52.451172 C 11.050553 53.012228 10.877863 53.577108 10.714844 54.150391 L 4.1523438 56.59375 C 3.4866834 56.842354 2.9959879 57.420282 2.8574219 58.117188 C 2.7188558 58.815444 2.9523552 59.528522 3.4726562 60.017578 L 8.6074219 64.800781 C 8.5435728 65.37814 8.4864057 65.958995 8.4375 66.539062 L 2.4746094 70.234375 C 1.8700811 70.60796 1.5019531 71.267687 1.5019531 71.986328 C 1.5019531 72.70497 1.8700811 73.357817 2.4746094 73.724609 L 8.4375 77.419922 C 8.4864057 78.001356 8.5435728 78.582798 8.6074219 79.160156 L 3.4726562 83.941406 C 2.9523552 84.426387 2.7188558 85.146844 2.8574219 85.84375 C 2.9959879 86.543373 3.4866834 87.117989 4.1523438 87.365234 L 10.714844 89.810547 C 10.877863 90.378396 11.050553 90.94133 11.228516 91.507812 L 7.1386719 97.185547 C 6.7229738 97.764264 6.6351465 98.516488 6.9082031 99.169922 C 7.1812597 99.82879 7.7752429 100.29935 8.484375 100.41211 L 15.398438 101.53711 C 15.668769 102.06149 15.945186 102.57786 16.230469 103.08594 L 13.324219 109.45703 C 13.028068 110.10503 13.089649 110.85547 13.486328 111.45312 C 13.883007 112.04679 14.557851 112.39376 15.265625 112.36523 L 18.070312 112.26758 A 5 5 0 0 0 22.535156 117.08594 L 21.78125 120.29883 C 21.618231 120.99166 21.822767 121.7122 22.328125 122.21484 C 22.829408 122.72156 23.559556 122.92474 24.257812 122.76172 L 31.089844 121.1582 C 31.53407 121.53586 31.983764 121.90231 32.4375 122.26367 L 32.193359 129.28711 C 32.16619 129.9976 32.513167 130.67244 33.105469 131.06641 C 33.695054 131.46173 34.449495 131.52271 35.101562 131.22656 L 38.119141 129.84961 A 5 5 0 0 0 42.431641 132.33594 A 5 5 0 0 0 43.521484 132.21094 L 44.150391 136.06641 C 44.264504 136.7701 44.733116 137.36545 45.390625 137.64258 C 46.046776 137.91563 46.804434 137.82645 47.375 137.41211 L 53.052734 133.32422 C 53.613791 133.50218 54.17867 133.67487 54.751953 133.83789 L 57.197266 140.40039 C 57.445869 141.06605 58.021844 141.55946 58.71875 141.69531 C 59.417014 141.8366 60.130084 141.60174 60.619141 141.08008 L 65.402344 135.94531 C 65.979702 136.01188 66.56055 136.06752 67.140625 136.11914 L 70.835938 142.08398 C 71.208156 142.6858 71.869162 143.05664 72.574219 143.05664 C 73.279275 143.05664 73.945795 142.68715 74.326172 142.08398 L 78.021484 136.11914 C 78.602918 136.06752 79.18436 136.01188 79.761719 135.94531 L 84.542969 141.08008 C 85.02795 141.60174 85.748415 141.8366 86.445312 141.69531 C 87.144935 141.5581 87.72091 141.06605 87.966797 140.40039 L 90.412109 133.83789 C 90.979958 133.67487 91.542884 133.50218 92.109375 133.32422 L 97.789062 137.41211 C 98.366421 137.82645 99.11805 137.91563 99.771484 137.64258 C 100.42899 137.37224 100.89956 136.77554 101.01367 136.06641 L 101.63281 132.26562 A 5 5 0 0 0 102.43164 132.33594 A 5 5 0 0 0 106.81055 129.74219 L 110.06055 131.22656 C 110.70855 131.52271 111.46086 131.46173 112.05859 131.06641 C 112.6509 130.66973 112.99456 129.9976 112.96875 129.28711 L 112.72461 122.26367 C 113.17835 121.90095 113.62744 121.53586 114.07031 121.1582 L 120.9043 122.76172 C 121.59849 122.92474 122.33134 122.72156 122.83398 122.21484 C 123.33934 121.71084 123.54388 120.98622 123.38086 120.29883 L 122.62891 117.0918 A 5 5 0 0 0 123.06055 117.11914 A 5 5 0 0 0 128.04883 112.30078 L 129.90625 112.36523 C 130.61402 112.39376 131.29354 112.04679 131.6875 111.45312 C 132.08418 110.8609 132.14517 110.10775 131.84766 109.45703 L 128.93945 103.08594 C 129.22338 102.57107 129.5025 102.05469 129.77148 101.53711 L 136.68555 100.41211 C 137.38924 100.29935 137.98178 99.82879 138.24805 99.169922 C 138.51974 98.513771 138.43463 97.756113 138.01758 97.185547 L 133.92773 91.507812 C 134.10434 90.946764 134.27703 90.38383 134.44141 89.810547 L 141.00391 87.365234 C 141.67093 87.115272 142.16103 86.540656 142.29688 85.84375 C 142.43808 85.145486 142.20525 84.430463 141.68359 83.941406 L 136.54883 79.160156 C 136.61132 78.582798 136.66849 77.999997 136.71875 77.419922 L 142.68164 73.724609 C 143.28617 73.352383 143.6543 72.691385 143.6543 71.986328 C 143.6543 71.281272 143.28812 70.614752 142.68359 70.234375 L 142.64062 70.234375 L 136.67773 66.539062 C 136.62747 65.957637 136.5703 65.37814 136.50781 64.800781 L 141.64258 60.017578 C 142.16424 59.531239 142.3991 58.812727 142.25781 58.117188 C 142.1206 57.417565 141.62991 56.839637 140.96289 56.59375 L 134.40039 54.150391 C 134.23601 53.582542 134.06332 53.017662 133.88672 52.451172 L 137.97656 46.773438 C 138.39362 46.196079 138.47873 45.443855 138.20703 44.789062 C 137.93533 44.13292 137.34144 43.662347 136.64453 43.546875 L 129.73047 42.423828 C 129.46149 41.899451 129.181 41.383075 128.89844 40.875 L 131.80664 34.490234 C 132.10415 33.840876 132.04316 33.089915 131.64648 32.492188 C 131.25116 31.899886 130.58175 31.552908 129.86719 31.580078 L 122.84375 31.826172 C 122.48103 31.372436 122.1106 30.921978 121.73438 30.480469 L 123.35156 23.646484 C 123.51458 22.952296 123.30809 22.221392 122.80273 21.71875 C 122.30145 21.216108 121.57462 21.006903 120.875 21.169922 L 114.04102 22.787109 C 113.59815 22.412166 113.14845 22.042396 112.69336 21.679688 L 112.93945 14.65625 C 112.96662 13.945759 112.61965 13.268962 112.02734 12.875 C 111.43368 12.478321 110.68333 12.420051 110.03125 12.714844 L 103.66016 15.621094 C 103.14529 15.338528 102.62891 15.059402 102.11133 14.789062 L 100.98242 7.8730469 C 100.86831 7.1720657 100.3997 6.5787642 99.742188 6.3125 C 99.086037 6.0394434 98.328379 6.1272706 97.757812 6.5429688 L 92.080078 10.630859 C 91.52038 10.452897 90.956946 10.282159 90.394531 10.119141 L 87.949219 3.5585938 C 87.700615 2.8902164 87.12464 2.3983317 86.427734 2.2597656 C 85.72947 2.1225581 85.0164 2.3560566 84.527344 2.875 L 79.744141 8.0097656 C 79.166782 7.9459166 78.585935 7.8873901 78.005859 7.8398438 L 74.310547 1.8632812 C 73.936962 1.2587537 73.275877 0.890625 72.558594 0.890625 z M 72.4375 9.8398438 A 62.177756 62.649697 0 0 1 134.61523 72.488281 A 62.177756 62.649697 0 0 1 124.06836 107.22266 A 5 5 0 0 0 123.06055 107.11914 A 5 5 0 0 0 118.06055 112.11914 A 5 5 0 0 0 118.57812 114.32422 A 62.177756 62.649697 0 0 1 106.70898 124.75 A 5 5 0 0 0 102.43164 122.33594 A 5 5 0 0 0 97.431641 127.33594 A 5 5 0 0 0 97.978516 129.60352 A 62.177756 62.649697 0 0 1 72.4375 135.13867 A 62.177756 62.649697 0 0 1 46.9375 129.48828 A 5 5 0 0 0 47.431641 127.33594 A 5 5 0 0 0 42.431641 122.33594 A 5 5 0 0 0 38.269531 124.57227 A 62.177756 62.649697 0 0 1 27.052734 115.11523 A 5 5 0 0 0 28.060547 112.11914 A 5 5 0 0 0 23.060547 107.11914 A 5 5 0 0 0 21.060547 107.54492 A 62.177756 62.649697 0 0 1 10.259766 72.488281 A 62.177756 62.649697 0 0 1 72.4375 9.8398438 z M 23.060547 108.11914 A 4 4 0 0 1 27.060547 112.11914 A 4 4 0 0 1 23.060547 116.11914 A 4 4 0 0 1 19.060547 112.11914 A 4 4 0 0 1 23.060547 108.11914 z M 123.06055 108.11914 A 4 4 0 0 1 127.06055 112.11914 A 4 4 0 0 1 123.06055 116.11914 A 4 4 0 0 1 119.06055 112.11914 A 4 4 0 0 1 123.06055 108.11914 z M 42.431641 123.33594 A 4 4 0 0 1 46.431641 127.33594 A 4 4 0 0 1 42.431641 131.33594 A 4 4 0 0 1 38.431641 127.33594 A 4 4 0 0 1 42.431641 123.33594 z M 102.43164 123.33594 A 4 4 0 0 1 106.43164 127.33594 A 4 4 0 0 1 102.43164 131.33594 A 4 4 0 0 1 98.431641 127.33594 A 4 4 0 0 1 102.43164 123.33594 z "
     transform="matrix(0.73611111,0,0,0.73611111,19,19)" /><path
     id="path6-3"
     style="clip-rule:evenodd;fill:#000000;fill-rule:nonzero;stroke-width:0.116063;stroke-linejoin:round;stroke-miterlimit:1.41421"
     d="M 41.017578 20.423828 C 41.194468 27.341266 43.859456 34.373581 48.117188 40.826172 L 48.984375 35.494141 C 49.096913 34.912207 49.467217 34.472669 50.013672 34.179688 C 50.48612 33.974899 51.148115 34.078246 51.582031 34.367188 L 56.222656 37.884766 C 56.614001 37.68708 57.092675 37.563144 57.572266 37.439453 L 59.535156 31.875 C 59.7359 31.367073 60.187393 30.919844 60.748047 30.789062 C 60.945875 30.742916 61.14385 30.749808 61.337891 30.78125 C 61.296313 30.150904 61.271484 29.527793 61.271484 28.914062 C 61.271484 28.421865 61.288218 27.932321 61.316406 27.445312 L 61.314453 27.445312 L 52.988281 24.980469 L 50.208984 23.986328 L 50.179688 23.976562 L 41.017578 20.423828 z M 61.337891 30.78125 C 61.910484 39.462057 66.375833 49.567627 73.476562 56.986328 C 79.702661 50.477435 83.895597 41.897615 85.216797 34.029297 L 84.466797 31.900391 C 84.254915 31.346841 83.804592 30.893798 83.222656 30.78125 C 82.64072 30.668754 82.085934 30.883963 81.634766 31.332031 L 77.767578 35.673828 C 77.354568 35.628178 76.853116 35.509245 76.359375 35.470703 L 73.388672 30.498047 C 73.095676 29.951591 72.582653 29.670107 72.007812 29.638672 C 71.432975 29.607262 70.891223 29.981072 70.609375 30.496094 L 70.611328 30.496094 L 67.615234 35.5 C 67.128599 35.54259 66.644834 35.58244 66.158203 35.625 L 62.265625 31.306641 C 62.028122 31.010082 61.693758 30.838914 61.337891 30.78125 z M 85.216797 34.029297 L 86.421875 37.449219 C 86.92271 37.56886 87.34395 37.693566 87.763672 37.820312 L 92.363281 34.396484 C 92.82154 34.029493 93.473261 33.972049 93.988281 34.253906 C 94.496209 34.454652 94.94317 34.905836 95 35.554688 L 95.917969 41.357422 C 96.344782 41.56526 96.77837 41.854662 97.205078 42.0625 L 98.363281 41.515625 C 102.88912 34.876581 105.73673 27.587586 105.91992 20.423828 L 96.757812 23.976562 L 96.724609 23.988281 L 93.947266 24.982422 L 85.623047 27.445312 C 85.651236 27.93232 85.666016 28.421865 85.666016 28.914062 C 85.666016 30.563278 85.510723 32.278837 85.216797 34.029297 z M 98.363281 41.515625 C 93.146311 49.16851 85.700044 55.956627 77.527344 60.691406 C 81.051908 63.473944 85.040715 65.596615 89.396484 66.693359 L 89.396484 67 C 89.400016 67.001087 89.404671 67.00315 89.408203 67.003906 L 89.408203 67.611328 C 84.750348 67.214453 80.362904 65.97593 76.322266 64.125 C 75.36708 63.726318 74.414418 63.299119 73.46875 62.84375 C 72.501113 63.30973 71.528903 63.752306 70.550781 64.15625 C 66.528124 65.990589 62.162106 67.216589 57.529297 67.611328 L 57.529297 67.003906 C 57.532829 67.002819 57.537348 67.000757 57.541016 67 L 57.541016 66.693359 C 61.897829 65.596336 65.886887 63.474997 69.412109 60.691406 C 60.995019 55.815446 53.351789 48.759211 48.117188 40.826172 L 48.027344 41.378906 C 47.636009 41.576601 47.251745 41.85771 46.779297 42.0625 L 41.664062 39.648438 C 41.149042 39.366578 40.499278 39.42402 40.041016 39.791016 C 39.575673 40.076906 39.302934 40.673204 39.271484 41.248047 L 39.462891 47.197266 C 39.159751 47.468967 38.784644 47.828626 38.400391 48.107422 L 32.888672 46.791016 C 32.299629 46.597366 31.74803 46.809647 31.296875 47.257812 C 30.919716 47.61771 30.732501 48.287001 30.863281 48.847656 L 32.183594 54.617188 C 31.887561 54.96999 31.591686 55.323894 31.302734 55.757812 L 25.564453 55.523438 C 24.989613 55.492028 24.442013 55.785761 24.160156 56.300781 C 23.878308 56.815801 23.77344 57.478937 24.066406 58.025391 L 26.414062 63.376953 C 26.125121 63.810871 25.916833 64.23725 25.708984 64.664062 L 20.158203 65.638672 C 19.509355 65.695372 19.05426 66.14637 18.853516 66.654297 C 18.659866 67.243326 18.716053 67.890115 19.001953 68.355469 L 22.363281 73.128906 C 22.289301 73.217136 22.295744 73.297804 22.302734 73.378906 L 12.878906 83.357422 C 12.878906 83.357422 11.50636 84.458007 13.539062 87.140625 L 30.873047 103.22656 L 26.714844 106.85547 C 25.730196 106.22871 24.52272 105.87891 23.164062 105.87891 C 22.457365 105.87891 21.776041 105.98803 21.136719 106.19141 L 21.498047 106.7793 C 22.026945 106.62711 22.586207 106.54687 23.164062 106.54688 C 26.484212 106.54688 28.767585 108.82829 28.767578 112.14844 C 28.767575 113.25675 28.466467 114.29602 27.943359 115.1875 L 28.423828 115.68359 C 29.06412 114.65857 29.435543 113.44607 29.435547 112.14844 C 29.435551 110.5639 28.956917 109.18612 28.121094 108.12695 L 32.65625 104.33789 C 32.838583 103.99296 33.140691 103.75915 32.455078 102.61133 L 18.728516 86.806641 C 18.728516 86.806641 22.267425 84.328751 22.835938 83.845703 C 22.926076 84.317689 23.137441 84.900756 23.599609 85.619141 L 49.507812 111.04102 L 45.869141 122.18164 C 44.37752 121.17165 42.452146 120.90117 40.439453 121.55078 C 39.766915 121.76785 39.153373 122.0808 38.607422 122.4707 L 39.130859 122.91992 C 39.587443 122.61262 40.094606 122.36303 40.644531 122.18555 C 43.804182 121.16573 46.677463 122.63722 47.697266 125.79688 C 48.037687 126.85158 48.071647 127.93235 47.847656 128.94141 L 48.457031 129.26562 C 48.751528 128.09351 48.732548 126.82671 48.333984 125.5918 C 48.002468 124.56466 47.487311 123.69696 46.839844 123.00977 L 46.896484 123.0332 L 51.917969 112.6875 C 52.335343 111.84022 52.267054 111.23355 51.837891 110.80469 L 29.255859 86.158203 C 31.473987 87.562103 34.30699 88.842935 37.595703 89.988281 C 38.473125 93.346907 41.069143 99.709579 51.775391 104.63672 C 59.731603 113.2726 66.80826 114.98549 72.916016 109.10156 C 69.095326 108.90434 65.046534 108.68048 59.833984 102.66797 C 63.576061 102.05705 67.955671 100.51823 72.792969 102.20898 C 70.462959 96.968661 60.117121 88.512905 53.5 100.36328 L 51.048828 99.78125 C 47.821243 97.315457 44.543316 94.477689 42.472656 91.416016 C 50.817655 93.45672 61.378498 94.679687 72.871094 94.679688 C 84.804805 94.679688 95.69308 93.349615 104.17773 91.166016 C 102.11912 94.32308 98.7565 97.248603 95.441406 99.78125 L 92.988281 100.36328 C 86.37116 88.512906 76.023368 96.968661 73.693359 102.20898 C 78.530653 100.51823 82.912221 102.05704 86.654297 102.66797 C 81.441746 108.68048 77.392956 108.90433 73.572266 109.10156 C 79.680022 114.98547 86.756679 113.2726 94.712891 104.63672 C 105.67511 99.591783 108.13143 93.050874 108.94922 89.761719 C 109.31882 89.637118 109.72411 89.52486 110.08008 89.396484 C 113.24225 88.062679 115.80783 86.57331 117.64258 84.970703 L 96.113281 111.61133 C 95.096235 112.32852 95.141087 113.44191 96.048828 114.875 L 98.970703 122.19531 C 97.870506 122.94744 97.007801 124.1032 96.527344 125.5918 C 96.12878 126.82671 96.109801 128.0935 96.404297 129.26562 L 97.013672 128.94141 C 96.789681 127.93235 96.823643 126.85159 97.164062 125.79688 C 98.183865 122.63722 101.05715 121.16573 104.2168 122.18555 C 104.76672 122.36303 105.27389 122.61262 105.73047 122.91992 L 106.25391 122.4707 C 105.70795 122.0808 105.09439 121.76785 104.42188 121.55078 C 102.65638 120.98096 100.95817 121.11968 99.560547 121.84375 L 97.890625 112.79883 L 121.98828 86.15625 C 122.61914 85.001208 122.73423 84.172783 122.70312 83.638672 C 123.39821 84.026063 127.43359 86.451172 127.43359 86.451172 L 116.08789 104.83984 C 115.86428 105.53249 115.89082 105.95777 116.08789 106.20312 L 118.16602 108.25 C 117.29897 109.31717 116.80273 110.71983 116.80273 112.33594 C 116.80275 113.63357 116.90854 114.12927 117.54883 115.1543 L 118.0293 114.6582 C 117.50622 113.76672 117.4707 113.44425 117.4707 112.33594 C 117.47069 109.0158 119.75407 106.73242 123.07422 106.73242 C 123.65208 106.73242 123.59807 106.71109 124.12695 106.86328 L 124.48828 106.27539 C 123.84896 106.07202 123.78092 106.06445 123.07422 106.06445 C 121.30256 106.06445 119.78708 106.66182 118.68945 107.68945 L 117.08398 105.44922 L 131.95117 85.199219 C 133.50134 82.366589 131.95898 81.519531 131.95898 81.519531 L 121.91406 74.146484 C 121.80457 73.829156 121.69565 73.511003 121.66016 73.105469 L 124.91992 68.326172 C 125.28997 67.88516 125.31343 67.229331 125.10156 66.675781 C 124.88969 66.122232 124.44914 65.749266 123.86719 65.636719 L 118.22266 64.660156 C 118.02495 64.268823 117.82075 63.795641 117.62305 63.404297 L 119.92578 57.974609 C 120.20763 57.45959 120.15336 56.810842 119.7793 56.271484 C 119.4934 55.806139 118.9779 55.522586 118.41016 55.572266 L 112.70312 55.746094 C 112.42435 55.361842 112.06397 54.981895 111.78516 54.597656 L 113.08008 48.845703 C 113.19256 48.263767 113.05338 47.623254 112.69336 47.246094 C 112.24525 46.794938 111.65829 46.599687 111.09766 46.730469 L 105.58008 48.113281 C 105.22728 47.817236 104.87553 47.519726 104.51562 47.142578 L 104.65039 41.248047 C 104.68179 40.673206 104.38825 40.127866 103.94727 39.757812 C 103.42516 39.394855 102.85115 39.361326 102.30469 39.654297 L 98.363281 41.515625 z M 61.984375 69.048828 C 65.213812 69.04843 67.830565 72.951398 67.830078 77.765625 C 67.829684 82.578923 65.213187 86.480867 61.984375 86.480469 C 58.756492 86.478969 56.139068 82.577537 56.138672 77.765625 C 56.138185 72.952785 58.75587 69.050392 61.984375 69.048828 z M 85.859375 69.46875 C 89.088188 69.468353 91.706637 73.370296 91.707031 78.183594 C 91.706637 82.99689 89.088188 86.89688 85.859375 86.896484 C 82.631494 86.894984 80.016019 82.995505 80.015625 78.183594 C 80.016019 73.371683 82.631493 69.470312 85.859375 69.46875 z "
     transform="matrix(0.73611111,0,0,0.73611111,19,19)" /><path
     id="path9646"
     style="stroke-width:1"
     d="m 297.3734,-26.844881 c -0.528,0 -1.00956,0.270984 -1.27956,0.715983 l -2.72016,4.399415 c -0.428,0.035 -0.85701,0.07808 -1.28101,0.125081 l -3.51953,-3.779758 c -0.357,-0.382 -0.88734,-0.553881 -1.40034,-0.452881 -0.515,0.103 -0.93899,0.464082 -1.11998,0.956082 l -1.80002,4.829292 c -0.418,0.119999 -0.83131,0.246681 -1.23931,0.376681 l -4.18088,-3.009141 c -0.425,-0.307001 -0.97829,-0.371651 -1.45929,-0.169651 -0.483,0.2 -0.83039,0.636736 -0.91439,1.148736 l -0.82956,5.090955 c -0.384,0.199001 -0.76411,0.403468 -1.14011,0.612468 l -4.68983,-2.139323 c -0.477,-0.218 -1.03079,-0.174107 -1.47079,0.117893 -0.43599,0.29 -0.68997,0.788198 -0.66997,1.311198 l 0.17971,5.170031 c -0.334,0.266993 -0.66502,0.539185 -0.99202,0.815185 l -5.03057,-1.19043 c -0.511,-0.119 -1.04903,0.034 -1.41903,0.403999 -0.372,0.371 -0.524,0.905026 -0.404,1.419026 l 1.18037,5.0305723 c -0.275,0.3260001 -0.54675,0.6565869 -0.81375,0.990587 l -5.17003,-0.1811526 c -0.521,-0.015 -1.01976,0.2354143 -1.30976,0.6714144 -0.292,0.4339934 -0.33633,0.9907842 -0.11933,1.4707838 l 2.13932,4.6998972 c -0.208,0.377 -0.41347,0.7571094 -0.61247,1.1401095 L 250.1976,4.554859 c -0.517,0.084 -0.95318,0.4303938 -1.15018,0.9143876 -0.2,0.4850001 -0.13535,1.0407205 0.16965,1.4607212 l 3.01058,4.1794432 c -0.131,0.412999 -0.25812,0.828814 -0.37812,1.250814 l -4.83073,1.798584 c -0.49,0.183 -0.8512,0.608419 -0.9532,1.121419 -0.102,0.513994 0.0699,1.038899 0.45288,1.398898 l 3.77976,3.520969 c -0.047,0.425001 -0.0891,0.852575 -0.12509,1.279568 l -4.38935,2.720161 c -0.445,0.275 -0.71598,0.760633 -0.71598,1.289632 0,0.529001 0.27098,1.009569 0.71598,1.279568 l 4.38935,2.720161 c 0.036,0.428 0.0781,0.856006 0.12509,1.281006 l -3.77976,3.519531 c -0.383,0.357 -0.55488,0.887336 -0.45288,1.400337 0.102,0.515 0.4632,0.937981 0.9532,1.119981 l 4.83073,1.800022 c 0.12,0.418 0.24712,0.832382 0.37812,1.249376 l -3.01058,4.179443 c -0.306,0.426 -0.37065,0.979721 -0.16965,1.460721 0.201,0.485 0.63824,0.831384 1.16024,0.914388 l 5.08952,0.828125 c 0.19899,0.386002 0.40247,0.766108 0.61247,1.140111 l -2.13933,4.68983 c -0.218,0.477 -0.17267,1.029408 0.11933,1.469344 0.292,0.437007 0.78876,0.692416 1.30976,0.671415 l 2.06456,-0.07188 a 3.6805556,3.6805556 0 0 0 3.28663,3.546849 l -0.55496,2.365044 c -0.12,0.51 0.0306,1.040397 0.40256,1.410396 0.369,0.373002 0.90647,0.522565 1.42046,0.402564 l 5.02914,-1.180368 c 0.327,0.277999 0.65802,0.547747 0.99202,0.813748 l -0.17971,5.170033 c -0.02,0.522999 0.23541,1.019756 0.67141,1.309762 0.434,0.290999 0.98935,0.335888 1.46935,0.117888 l 2.22127,-1.013588 a 3.6805556,3.6805556 0 0 0 3.17448,1.830215 3.6805556,3.6805556 0 0 0 0.80224,-0.09201 l 0.46295,2.838055 c 0.084,0.517994 0.42895,0.956237 0.91295,1.160236 0.483,0.200995 1.04072,0.135349 1.46072,-0.169652 l 4.17944,-3.009141 c 0.413,0.130998 0.82882,0.258117 1.25082,0.378118 l 1.80002,4.830729 c 0.183,0.49 0.60698,0.853205 1.11998,0.953205 0.514,0.104006 1.0389,-0.06888 1.3989,-0.452877 l 3.52097,-3.779761 c 0.425,0.049 0.85257,0.08996 1.27957,0.127958 l 2.72016,4.390785 c 0.27399,0.443006 0.76057,0.715986 1.27957,0.715986 0.519,0 1.00963,-0.271986 1.28963,-0.715986 l 2.72016,-4.390785 c 0.428,-0.038 0.856,-0.07896 1.281,-0.127958 l 3.51954,3.779761 c 0.357,0.383999 0.88734,0.556883 1.40033,0.452877 0.515,-0.101001 0.93898,-0.463205 1.11998,-0.953205 l 1.80002,-4.830729 c 0.418,-0.120001 0.83238,-0.24712 1.24938,-0.378118 l 4.18088,3.009141 c 0.425,0.305001 0.97828,0.370647 1.45928,0.169652 0.484,-0.199 0.83039,-0.638238 0.91439,-1.160236 l 0.45576,-2.797804 a 3.6805556,3.6805556 0 0 0 0.58803,0.05176 3.6805556,3.6805556 0 0 0 3.22336,-1.909288 l 2.39236,1.092661 c 0.477,0.218 1.03078,0.173111 1.47078,-0.117888 0.43601,-0.292001 0.68898,-0.786763 0.66998,-1.309762 l -0.17972,-5.170033 c 0.33401,-0.267002 0.66459,-0.535749 0.99059,-0.813748 l 5.03058,1.180368 c 0.511,0.120001 1.05046,-0.02956 1.42045,-0.402564 0.37201,-0.371 0.52257,-0.904401 0.40257,-1.410396 l -0.55352,-2.360731 a 3.6805556,3.6805556 0 0 0 0.31773,0.02013 3.6805556,3.6805556 0 0 0 3.67193,-3.546849 l 1.36727,0.04744 c 0.521,0.021 1.0212,-0.234408 1.3112,-0.671415 0.292,-0.435939 0.33689,-0.990341 0.11789,-1.469344 l -2.14076,-4.68983 c 0.209,-0.379001 0.41447,-0.759114 0.61247,-1.140111 l 5.08952,-0.828125 c 0.51799,-0.083 0.95417,-0.429388 1.15017,-0.914388 0.2,-0.483 0.13735,-1.040721 -0.16965,-1.460721 l -3.01058,-4.179443 c 0.13,-0.412994 0.25712,-0.827376 0.37812,-1.249376 l 4.83073,-1.800022 c 0.491,-0.184 0.85177,-0.606981 0.95177,-1.119981 0.10394,-0.514 -0.0675,-1.040337 -0.45145,-1.400337 l -3.77975,-3.519531 c 0.046,-0.425 0.0881,-0.854006 0.12508,-1.281006 l 4.38935,-2.720161 c 0.445,-0.273999 0.71598,-0.760567 0.71598,-1.279568 0,-0.518999 -0.26955,-1.009632 -0.71455,-1.289632 h -0.0316 l -4.38935,-2.720161 c -0.037,-0.427993 -0.0791,-0.854567 -0.12508,-1.279568 l 3.77976,-3.520969 c 0.384,-0.357999 0.55689,-0.886904 0.45288,-1.398898 -0.101,-0.515 -0.4622,-0.940419 -0.9532,-1.121419 l -4.83073,-1.798584 c -0.121,-0.418 -0.24812,-0.833814 -0.37812,-1.250814 l 3.01058,-4.1794432 c 0.307,-0.4250003 0.36965,-0.9787208 0.16965,-1.4607212 -0.2,-0.4829934 -0.63717,-0.8293874 -1.15018,-0.9143876 l -5.08951,-0.8266874 c -0.198,-0.3859997 -0.40447,-0.7661098 -0.61247,-1.1401095 l 2.14076,-4.6998972 c 0.219,-0.4779996 0.1741,-1.0307904 -0.1179,-1.4707838 -0.291,-0.4360001 -0.78376,-0.6914145 -1.30975,-0.6714144 l -5.17003,0.1811526 c -0.26701,-0.3340001 -0.53968,-0.6655873 -0.81662,-0.990587 l 1.19042,-5.0305723 c 0.12,-0.510999 -0.032,-1.049026 -0.404,-1.419026 -0.369,-0.370001 -0.90402,-0.523999 -1.41902,-0.403999 l -5.03057,1.19043 c -0.326,-0.276 -0.65703,-0.548192 -0.99203,-0.815185 l 0.18115,-5.170031 c 0.02,-0.523 -0.23541,-1.021198 -0.67141,-1.311198 -0.437,-0.292 -0.98934,-0.334893 -1.46935,-0.117893 l -4.68983,2.139323 c -0.379,-0.208 -0.75911,-0.413467 -1.14011,-0.612468 l -0.831,-5.090955 c -0.084,-0.516 -0.42895,-0.952736 -0.91295,-1.148736 -0.483,-0.201 -1.04072,-0.13635 -1.46072,0.169651 l -4.17944,3.009141 c -0.412,-0.131 -0.82675,-0.256682 -1.24075,-0.376681 l -1.80003,-4.829292 c -0.183,-0.492 -0.60698,-0.854082 -1.11998,-0.956082 -0.514,-0.101 -1.0389,0.07088 -1.3989,0.452881 l -3.52096,3.779758 c -0.42501,-0.047 -0.85257,-0.09008 -1.27957,-0.125081 l -2.72016,-4.399415 c -0.275,-0.444999 -0.76164,-0.715983 -1.28964,-0.715983 z m -0.0891,6.58762 a 45.769737,46.117138 0 0 1 45.76971,46.11621 45.769737,46.117138 0 0 1 -7.76366,25.568363 3.6805556,3.6805556 0 0 0 -0.74187,-0.0762 3.6805556,3.6805556 0 0 0 -3.68055,3.680555 3.6805556,3.6805556 0 0 0 0.38099,1.623184 45.769737,46.117138 0 0 1 -8.73701,7.674532 3.6805556,3.6805556 0 0 0 -3.14859,-1.777016 3.6805556,3.6805556 0 0 0 -3.68056,3.680556 3.6805556,3.6805556 0 0 0 0.40256,1.66919 45.769737,46.117138 0 0 1 -18.80102,4.074486 45.769737,46.117138 0 0 1 -18.77084,-4.159315 3.6805556,3.6805556 0 0 0 0.36374,-1.584361 3.6805556,3.6805556 0 0 0 -3.68055,-3.680556 3.6805556,3.6805556 0 0 0 -3.06378,1.646187 45.769737,46.117138 0 0 1 -8.25681,-6.961432 3.6805556,3.6805556 0 0 0 0.74187,-2.205455 3.6805556,3.6805556 0 0 0 -3.68056,-3.680555 3.6805556,3.6805556 0 0 0 -1.47222,0.313421 45.769737,46.117138 0 0 1 -7.95058,-25.805582 45.769737,46.117138 0 0 1 45.76973,-46.11621 z m -36.34693,72.344482 a 2.9444444,2.9444444 0 0 1 2.94445,2.944444 2.9444444,2.9444444 0 0 1 -2.94445,2.944445 2.9444444,2.9444444 0 0 1 -2.94444,-2.944445 2.9444444,2.9444444 0 0 1 2.94444,-2.944444 z m 73.61111,0 a 2.9444444,2.9444444 0 0 1 2.94445,2.944444 2.9444444,2.9444444 0 0 1 -2.94445,2.944445 2.9444444,2.9444444 0 0 1 -2.94444,-2.944445 2.9444444,2.9444444 0 0 1 2.94444,-2.944444 z m -59.35183,11.201255 a 2.9444444,2.9444444 0 0 1 2.94444,2.944445 2.9444444,2.9444444 0 0 1 -2.94444,2.944444 2.9444444,2.9444444 0 0 1 -2.94445,-2.944444 2.9444444,2.9444444 0 0 1 2.94445,-2.944445 z m 44.16667,0 a 2.9444444,2.9444444 0 0 1 2.94444,2.944445 2.9444444,2.9444444 0 0 1 -2.94444,2.944444 2.9444444,2.9444444 0 0 1 -2.94445,-2.944444 2.9444444,2.9444444 0 0 1 2.94445,-2.944445 z" /><path
     id="path9648"
     style="clip-rule:evenodd;fill:#a52b00;fill-rule:nonzero;stroke-width:0.0854353;stroke-linejoin:round;stroke-miterlimit:1.41421"
     d="m 296.62723,-11.409551 c -0.42315,-0.02312 -0.82194,0.252045 -1.02941,0.631158 h 10e-4 l -2.20546,3.6834309 c -0.35822,0.031351 -0.71433,0.060685 -1.07254,0.092014 l -2.86537,-3.1787919 c -0.27016,-0.337331 -0.70441,-0.477264 -1.11711,-0.380995 -0.4127,0.09627 -0.74505,0.425479 -0.89282,0.7993703 l -1.4449,4.0960556 c -0.35304,0.09105 -0.70539,0.182281 -0.99347,0.3277999 l -3.41601,-2.5893283 c -0.31941,-0.2126934 -0.80671,-0.2887683 -1.15449,-0.1380208 -0.40225,0.215668 -0.67484,0.5392154 -0.75768,0.9675835 l -0.70448,4.3318409 c -0.28806,0.1455254 -0.57092,0.3524529 -0.9187,0.5032011 l -3.76538,-1.7770179 c -0.37911,-0.2074802 -0.85741,-0.1651965 -1.19474,0.1049533 -0.34255,0.2104468 -0.54331,0.6493884 -0.56646,1.0725367 l 0.14086,4.3792862 c -0.22314,0.2000021 -0.49926,0.4647511 -0.78212,0.6699759 l -4.05724,-0.969021 c -0.4336,-0.142548 -0.83963,0.013714 -1.17173,0.3436144 -0.27764,0.2649249 -0.41545,0.7575967 -0.31918,1.1703011 l 0.9719,4.2470166 c -0.21791,0.259703 -0.43571,0.5202134 -0.64841,0.8396267 l -4.22401,-0.172526 c -0.42315,-0.023121 -0.82624,0.1930989 -1.03372,0.5722108 -0.20747,0.379112 -0.28467,0.8672537 -0.069,1.2695046 l 1.72813,3.9393444 c -0.21269,0.319412 -0.36601,0.633273 -0.51901,0.947456 l -4.086,0.71742 c -0.47762,0.04174 -0.81262,0.373722 -0.96039,0.747613 -0.14255,0.433591 -0.10119,0.909699 0.10927,1.252252 l 2.47431,3.51378 c -0.0545,0.06495 -0.0497,0.124327 -0.0446,0.184027 l -6.93699,7.345297 c 0,0 -1.01035,0.810153 0.48595,2.784858 l 13.10048,17.567462 -3.0609,2.671281 c -0.72481,-0.461365 -1.61365,-0.718857 -2.61377,-0.718857 -0.52021,0 -1.02174,0.08033 -1.49235,0.230035 l 0.26598,0.432753 c 0.38932,-0.112029 0.801,-0.171095 1.22637,-0.171087 2.444,0 4.12481,1.679371 4.12481,4.12337 0,0.815839 -0.22165,1.580858 -0.60672,2.237086 l 0.35368,0.365177 c 0.47133,-0.754528 0.74473,-1.647063 0.74474,-2.602263 0,-1.166397 -0.35233,-2.180597 -0.96759,-2.960263 l 3.33838,-2.789169 c 0.13422,-0.253907 0.35661,-0.426017 -0.14808,-1.27094 l -10.4445,-17.36038 c 0,0 2.60452,-1.824057 3.02301,-2.179634 0.0663,0.347434 0.22194,0.776636 0.56214,1.305447 l 19.41206,24.439755 -2.67847,8.200734 c -1.098,-0.743465 -2.51529,-0.942568 -3.99685,-0.464383 -0.49507,0.159788 -0.9467,0.390154 -1.34858,0.677163 l 0.38531,0.330676 c 0.33609,-0.226207 0.70942,-0.409933 1.11423,-0.540578 2.32585,-0.750701 4.44091,0.33248 5.19159,2.65834 0.25059,0.776392 0.27559,1.571944 0.11071,2.314724 l 0.44857,0.238655 c 0.21678,-0.862818 0.20281,-1.795309 -0.0906,-2.70434 -0.24403,-0.756089 -0.62325,-1.394813 -1.09985,-1.900661 l 0.0417,0.01723 3.69637,-7.615585 c 0.30723,-0.623692 0.25696,-1.070269 -0.059,-1.385957 L 265.15704,30.195104 c 1.63279,1.033426 3.71819,1.976261 6.13905,2.819363 0.64588,2.472322 2.55684,7.155954 10.43783,10.782878 5.85665,6.356966 11.06586,7.61785 15.56185,3.286624 -2.81246,-0.145176 -5.79282,-0.309969 -9.62983,-4.735843 2.75458,-0.449711 5.97846,-1.582444 9.53925,-0.337863 -1.71515,-3.857462 -9.33083,-10.081834 -14.20177,-1.358643 l -1.80433,-0.42844 c -2.37586,-1.815097 -4.78878,-3.90401 -6.31302,-6.157741 6.14285,1.502184 13.9168,2.402425 22.37663,2.402425 8.78454,0 16.79951,-0.979082 23.04516,-2.586453 -1.51536,2.32395 -3.99062,4.47746 -6.4309,6.341769 l -1.80577,0.42844 c -4.87094,-8.72319 -12.48807,-2.498819 -14.20321,1.358643 3.56078,-1.244581 6.7861,-0.111852 9.54069,0.337863 -3.83702,4.425874 -6.81738,4.59066 -9.62983,4.735843 4.49599,4.331212 9.70519,3.070342 15.56185,-3.286624 8.06941,-3.713635 9.87754,-8.528469 10.47952,-10.949653 0.27207,-0.09172 0.5704,-0.174354 0.83244,-0.268853 2.32771,-0.981828 4.21626,-2.07817 5.56684,-3.257867 L 314.71227,54.65786 c -0.74866,0.527932 -0.71564,1.347511 -0.0474,2.402424 l 2.15082,5.388562 c -0.80986,0.553651 -1.44491,1.404419 -1.79858,2.500194 -0.29339,0.909031 -0.30736,1.841514 -0.0906,2.70434 l 0.44857,-0.238655 c -0.16488,-0.74278 -0.13988,-1.538325 0.1107,-2.314724 0.75069,-2.32586 2.86575,-3.409041 5.1916,-2.65834 0.4048,0.130645 0.77814,0.314371 1.11423,0.540578 l 0.38531,-0.330676 c -0.40189,-0.287009 -0.85352,-0.517375 -1.34858,-0.677163 -1.2996,-0.419451 -2.54967,-0.317337 -3.57848,0.215659 l -1.22924,-6.658067 17.39781,-25.338326 c 0.46438,-0.850239 0.5491,-1.460052 0.5262,-1.853217 0.51166,0.285163 3.48215,2.070313 3.48215,2.070313 l -8.01025,19.262066 c -0.1646,0.509867 -0.14519,0.824083 -1.3e-4,1.004703 l 1.67353,1.64749 0.42536,-0.297757 -1.36554,-1.904753 10.60247,-20.633326 c 1.1411,-2.08513 0.006,-2.708659 0.006,-2.708659 l -7.39418,-5.427381 c -0.0806,-0.233589 -0.16077,-0.467785 -0.1869,-0.766304 l 2.39955,-3.518093 c 0.2724,-0.324634 0.28967,-0.807397 0.13371,-1.214871 -0.15596,-0.407474 -0.48026,-0.682018 -0.90864,-0.764865 l -4.155,-0.718859 c -0.14553,-0.288065 -0.29585,-0.636379 -0.44138,-0.924452 l 1.69507,-3.9968537 c 0.20747,-0.3791112 0.16752,-0.8566611 -0.10783,-1.2536885 -0.21045,-0.3425456 -0.58992,-0.5512729 -1.00784,-0.5147029 l -4.20101,0.1279568 c -0.20522,-0.2828522 -0.47049,-0.5625354 -0.67572,-0.845378 l 0.9532,-4.2340765 c 0.0828,-0.4283696 -0.0197,-0.8998583 -0.28467,-1.17749 -0.32986,-0.3321009 -0.76192,-0.4758273 -1.17461,-0.3795573 l -4.06155,1.0179033 c -0.2597,-0.217922 -0.51863,-0.4369224 -0.78356,-0.7145453 l 0.0992,-4.3390297 c 0.0231,-0.4231469 -0.19296,-0.824577 -0.51757,-1.0969778 -0.38433,-0.2671782 -0.80687,-0.2918585 -1.20912,-0.076199 l -3.75388,1.772705 c -0.31411,-0.1529919 -0.63328,-0.3660239 -0.94746,-0.5190158 l -0.67572,-4.2714569 c -0.0418,-0.4776272 -0.37085,-0.8097487 -0.74474,-0.9575201 -0.37911,-0.2074781 -0.85885,-0.1651922 -1.19618,0.104954 l -3.38583,2.5203178 c -0.30896,-0.093301 -0.61904,-0.1850973 -0.98771,-0.2731664 l -1.43915,-4.0845539 c -0.15597,-0.4074751 -0.48746,-0.7409651 -0.91583,-0.8238121 -0.42837,-0.08281 -0.83675,0.07561 -1.16886,0.405436 l -2.84668,3.196045 c -0.30402,-0.033603 -0.67329,-0.1211514 -1.03674,-0.1495226 l -2.18677,-3.6604274 c -0.21567,-0.402253 -0.59331,-0.609456 -1.01646,-0.632596 z m -7.37837,29.010254 c 2.37723,-2.93e-4 4.30345,2.872725 4.30309,6.416531 -2.9e-4,3.543122 -1.92632,6.415387 -4.30309,6.415094 -2.37608,-0.0011 -4.30279,-2.872992 -4.30308,-6.415094 -3.6e-4,-3.542785 1.92655,-6.41538 4.30308,-6.416531 z m 17.57466,0.309109 c 2.37676,-2.92e-4 4.30423,2.871972 4.30452,6.415094 -2.9e-4,3.54312 -1.92776,6.413947 -4.30452,6.413656 -2.37608,-0.0011 -4.30136,-2.871555 -4.30165,-6.413656 2.9e-4,-3.542101 1.92557,-6.413944 4.30165,-6.415094 z"
     sodipodi:nodetypes="ccccccscccccccccccccccccccsccccccccccccscccsccsccccccccscccsccscccccccccccccscccccccccccccsccssccscccccccccccccccscccccccccccccccccccccccccccccccccccccccc" /><path
     id="path9650"
     style="font-variation-settings:normal;opacity:1;vector-effect:none;fill:#000000;fill-opacity:1;stroke:none;stroke-width:9.33263;stroke-linecap:round;stroke-linejoin:round;stroke-miterlimit:4;stroke-dasharray:none;stroke-dashoffset:0;stroke-opacity:1;-inkscape-stroke:none;stop-color:#000000;stop-opacity:1"
     d="m 330.49073,57.26598 c -0.47132,-0.75453 -0.5482,-1.11976 -0.54821,-2.07496 0,-2.715547 1.90062,-4.616163 4.61617,-4.616163 0.52021,0 0.57039,0.0056 1.041,0.155304 l -0.26612,0.433239 c -0.38932,-0.112027 -0.34951,-0.09685 -0.77488,-0.09685 -2.444,0 -4.12448,1.680478 -4.12447,4.124469 0,0.81584 0.0253,1.05375 0.41034,1.70998 z"
     sodipodi:nodetypes="cssccsscc" /><path
     id="path10208"
     style="stroke-width:1"
     d="m 288.95288,92.805931 c -0.528,0 -1.00957,0.270983 -1.27957,0.715983 l -2.72016,4.399414 c -0.428,0.035 -0.85701,0.07808 -1.28101,0.125081 l -3.51953,-3.779758 c -0.357,-0.382 -0.88733,-0.553881 -1.40033,-0.452881 -0.51501,0.103 -0.93899,0.464082 -1.11999,0.956082 l -1.80002,4.829292 c -0.418,0.119999 -0.83131,0.246682 -1.23931,0.376681 l -4.18088,-3.009141 c -0.425,-0.307 -0.97828,-0.371651 -1.45928,-0.169651 -0.483,0.2 -0.83039,0.636736 -0.91439,1.148736 l -0.82956,5.090951 c -0.384,0.19901 -0.76411,0.40347 -1.14011,0.61247 l -4.68984,-2.13932 c -0.477,-0.218 -1.03078,-0.17411 -1.47078,0.11789 -0.436,0.29 -0.68998,0.7882 -0.66998,1.3112 l 0.17972,5.17003 c -0.334,0.26699 -0.66503,0.53919 -0.99203,0.81519 l -5.03057,-1.19043 c -0.511,-0.119 -1.04903,0.034 -1.41903,0.404 -0.372,0.371 -0.52399,0.90502 -0.40399,1.41902 l 1.18036,5.03057 c -0.275,0.326 -0.54675,0.65659 -0.81375,0.99059 l -5.17003,-0.18115 c -0.521,-0.015 -1.01976,0.23541 -1.30976,0.67141 -0.292,0.434 -0.33633,0.99079 -0.11933,1.47079 l 2.13932,4.69989 c -0.208,0.377 -0.41346,0.75711 -0.61246,1.14011 l -5.08952,0.82669 c -0.517,0.084 -0.95317,0.43039 -1.15017,0.91439 -0.2,0.485 -0.13535,1.04072 0.16965,1.46072 l 3.01058,4.17944 c -0.131,0.413 -0.25812,0.82882 -0.37812,1.25082 l -4.83073,1.79858 c -0.49,0.183 -0.85121,0.60842 -0.95321,1.12142 -0.102,0.51399 0.0699,1.0389 0.45288,1.3989 l 3.77976,3.52097 c -0.047,0.425 -0.0891,0.85257 -0.12508,1.27956 l -4.38935,2.72017 c -0.445,0.275 -0.71599,0.76063 -0.71599,1.28963 0,0.529 0.27099,1.00957 0.71599,1.27957 l 4.38935,2.72016 c 0.036,0.428 0.0781,0.856 0.12508,1.281 l -3.77976,3.51953 c -0.383,0.357 -0.55488,0.88734 -0.45288,1.40034 0.102,0.515 0.46321,0.93798 0.95321,1.11998 l 4.83073,1.80002 c 0.12,0.418 0.24712,0.83239 0.37812,1.24938 l -3.01058,4.17944 c -0.306,0.426 -0.37065,0.97972 -0.16965,1.46072 0.201,0.48501 0.63823,0.83139 1.16023,0.91439 l 5.08952,0.82813 c 0.199,0.386 0.40247,0.76611 0.61247,1.14011 l -2.13932,4.68983 c -0.218,0.477 -0.17267,1.02941 0.11933,1.46934 0.292,0.43701 0.78876,0.69242 1.30976,0.67142 l 2.06456,-0.0719 a 3.6805556,3.6805556 0 0 0 3.28662,3.54685 l -0.55496,2.36504 c -0.12,0.51 0.0306,1.0404 0.40256,1.4104 0.369,0.373 0.90647,0.52256 1.42047,0.40256 l 5.02913,-1.18037 c 0.327,0.278 0.65802,0.54775 0.99202,0.81375 l -0.17971,5.17003 c -0.02,0.523 0.23541,1.01976 0.67141,1.30977 0.434,0.29099 0.98936,0.33588 1.46935,0.11788 l 2.22127,-1.01358 a 3.6805556,3.6805556 0 0 0 3.17448,1.83021 3.6805556,3.6805556 0 0 0 0.80225,-0.092 l 0.46294,2.83805 c 0.084,0.51799 0.42895,0.95624 0.91295,1.16024 0.483,0.20099 1.04072,0.13535 1.46072,-0.16965 l 4.17945,-3.00915 c 0.413,0.131 0.82881,0.25812 1.25081,0.37812 l 1.80002,4.83073 c 0.183,0.49 0.60698,0.85321 1.11998,0.95321 0.514,0.104 1.0389,-0.0689 1.3989,-0.45288 l 3.52097,-3.77976 c 0.425,0.049 0.85257,0.09 1.27957,0.12796 l 2.72016,4.39078 c 0.274,0.44301 0.76057,0.71599 1.27957,0.71599 0.519,0 1.00963,-0.27199 1.28963,-0.71599 l 2.72016,-4.39078 c 0.428,-0.038 0.85601,-0.079 1.28101,-0.12796 l 3.51953,3.77976 c 0.357,0.384 0.88734,0.55688 1.40033,0.45288 0.51501,-0.10101 0.93899,-0.46321 1.11999,-0.95321 l 1.80002,-4.83073 c 0.418,-0.12 0.83237,-0.24712 1.24937,-0.37812 l 4.18089,3.00915 c 0.425,0.305 0.97828,0.37064 1.45928,0.16965 0.484,-0.199 0.83039,-0.63824 0.91439,-1.16024 l 0.45575,-2.7978 a 3.6805556,3.6805556 0 0 0 0.58803,0.0518 3.6805556,3.6805556 0 0 0 3.22336,-1.90929 l 2.39236,1.09266 c 0.477,0.218 1.03079,0.17311 1.47078,-0.11788 0.43601,-0.29201 0.68898,-0.78677 0.66998,-1.30977 l -0.17971,-5.17003 c 0.334,-0.267 0.66458,-0.53575 0.99058,-0.81375 l 5.03058,1.18037 c 0.511,0.12 1.05046,-0.0296 1.42046,-0.40256 0.372,-0.371 0.52256,-0.9044 0.40256,-1.4104 l -0.55352,-2.36073 a 3.6805556,3.6805556 0 0 0 0.31774,0.0201 3.6805556,3.6805556 0 0 0 3.67193,-3.54684 l 1.36726,0.0474 c 0.521,0.021 1.0212,-0.23441 1.3112,-0.67142 0.292,-0.43594 0.3369,-0.99034 0.1179,-1.46934 l -2.14077,-4.68983 c 0.20901,-0.379 0.41447,-0.75911 0.61247,-1.14011 l 5.08952,-0.82813 c 0.518,-0.083 0.95417,-0.42938 1.15018,-0.91439 0.19999,-0.483 0.13734,-1.04072 -0.16966,-1.46072 l -3.01058,-4.17944 c 0.13,-0.41299 0.25712,-0.82738 0.37813,-1.24938 l 4.83073,-1.80002 c 0.491,-0.184 0.85176,-0.60698 0.95176,-1.11998 0.10394,-0.514 -0.0675,-1.04034 -0.45144,-1.40034 l -3.77976,-3.51953 c 0.046,-0.425 0.0881,-0.854 0.12508,-1.281 l 4.38935,-2.72016 c 0.445,-0.274 0.71599,-0.76057 0.71599,-1.27957 0,-0.519 -0.26955,-1.00963 -0.71455,-1.28963 h -0.0316 l -4.38935,-2.72017 c -0.037,-0.42799 -0.0791,-0.85456 -0.12508,-1.27956 l 3.77976,-3.52097 c 0.384,-0.358 0.55688,-0.88691 0.45287,-1.3989 -0.101,-0.515 -0.4622,-0.94042 -0.9532,-1.12142 l -4.83073,-1.79858 c -0.121,-0.418 -0.24812,-0.83382 -0.37812,-1.25082 l 3.01058,-4.17944 c 0.307,-0.425 0.36965,-0.97872 0.16965,-1.46072 -0.2,-0.483 -0.63717,-0.82939 -1.15017,-0.91439 l -5.08952,-0.82669 c -0.198,-0.386 -0.40447,-0.76611 -0.61247,-1.14011 l 2.14076,-4.69989 c 0.219,-0.478 0.17411,-1.03079 -0.11789,-1.47079 -0.291,-0.436 -0.78376,-0.69141 -1.30976,-0.67141 l -5.17003,0.18115 c -0.267,-0.334 -0.53968,-0.66559 -0.81662,-0.99059 l 1.19042,-5.03057 c 0.12,-0.511 -0.032,-1.04902 -0.404,-1.41902 -0.36899,-0.37001 -0.90402,-0.524 -1.41902,-0.404 l -5.03057,1.19043 c -0.326,-0.276 -0.65703,-0.5482 -0.99203,-0.81519 l 0.18115,-5.17003 c 0.02,-0.523 -0.2354,-1.0212 -0.67141,-1.3112 -0.437,-0.292 -0.98934,-0.33489 -1.46934,-0.11789 l -4.68983,2.13932 c -0.37901,-0.208 -0.75912,-0.41346 -1.14012,-0.61247 l -0.831,-5.090951 c -0.084,-0.516 -0.42895,-0.952736 -0.91295,-1.148736 -0.483,-0.201 -1.04072,-0.136349 -1.46072,0.169651 l -4.17944,3.009141 c -0.412,-0.131 -0.82675,-0.256682 -1.24075,-0.376681 l -1.80002,-4.829292 c -0.183,-0.492 -0.60698,-0.854082 -1.11998,-0.956082 -0.514,-0.101 -1.0389,0.07088 -1.3989,0.452881 l -3.52097,3.779758 c -0.425,-0.047 -0.85257,-0.09008 -1.27957,-0.125081 l -2.72016,-4.399414 c -0.275,-0.445 -0.76163,-0.715983 -1.28963,-0.715983 z m -0.0891,6.587619 a 45.769737,46.117138 0 0 1 45.76972,46.11621 45.769737,46.117138 0 0 1 -7.76367,25.56837 3.6805556,3.6805556 0 0 0 -0.74186,-0.0762 3.6805556,3.6805556 0 0 0 -3.68056,3.68056 3.6805556,3.6805556 0 0 0 0.38099,1.62318 45.769737,46.117138 0 0 1 -8.737,7.67454 3.6805556,3.6805556 0 0 0 -3.1486,-1.77702 3.6805556,3.6805556 0 0 0 -3.68056,3.68055 3.6805556,3.6805556 0 0 0 0.40256,1.6692 45.769737,46.117138 0 0 1 -18.80102,4.07448 45.769737,46.117138 0 0 1 -18.77083,-4.15931 3.6805556,3.6805556 0 0 0 0.36374,-1.58437 3.6805556,3.6805556 0 0 0 -3.68056,-3.68055 3.6805556,3.6805556 0 0 0 -3.06377,1.64619 45.769737,46.117138 0 0 1 -8.25681,-6.96144 3.6805556,3.6805556 0 0 0 0.74186,-2.20545 3.6805556,3.6805556 0 0 0 -3.68055,-3.68056 3.6805556,3.6805556 0 0 0 -1.47223,0.31343 45.769737,46.117138 0 0 1 -7.95057,-25.80559 45.769737,46.117138 0 0 1 45.76972,-46.11621 z m -36.34692,72.34448 a 2.9444444,2.9444444 0 0 1 2.94444,2.94445 2.9444444,2.9444444 0 0 1 -2.94444,2.94444 2.9444444,2.9444444 0 0 1 -2.94445,-2.94444 2.9444444,2.9444444 0 0 1 2.94445,-2.94445 z m 73.61111,0 a 2.9444444,2.9444444 0 0 1 2.94444,2.94445 2.9444444,2.9444444 0 0 1 -2.94444,2.94444 2.9444444,2.9444444 0 0 1 -2.94445,-2.94444 2.9444444,2.9444444 0 0 1 2.94445,-2.94445 z m -59.35184,11.20126 a 2.9444444,2.9444444 0 0 1 2.94445,2.94444 2.9444444,2.9444444 0 0 1 -2.94445,2.94445 2.9444444,2.9444444 0 0 1 -2.94444,-2.94445 2.9444444,2.9444444 0 0 1 2.94444,-2.94444 z m 44.16667,0 a 2.9444444,2.9444444 0 0 1 2.94444,2.94444 2.9444444,2.9444444 0 0 1 -2.94444,2.94445 2.9444444,2.9444444 0 0 1 -2.94445,-2.94445 2.9444444,2.9444444 0 0 1 2.94445,-2.94444 z" /><path
     id="path10210"
     style="clip-rule:evenodd;fill:#a52b00;fill-rule:nonzero;stroke-width:0.0854353;stroke-linejoin:round;stroke-miterlimit:1.41421"
     d="m 288.54699,113.96709 c -0.42314,-0.0231 -0.82193,0.25205 -1.0294,0.63116 h 0.001 l -2.20546,3.68343 c -0.35822,0.0314 -0.71432,0.0607 -1.07254,0.092 l -2.86537,-3.17879 c -0.27015,-0.33733 -0.70441,-0.47726 -1.1171,-0.38099 -0.41271,0.0963 -0.74506,0.42548 -0.89283,0.79937 l -1.4449,4.09605 c -0.35303,0.0911 -0.70539,0.18228 -0.99346,0.3278 l -3.41555,-2.58932 c -0.31941,-0.2127 -0.80671,-0.28877 -1.15449,-0.13802 -0.40225,0.21566 -0.67483,0.53921 -0.75767,0.96758 l -0.70448,4.33184 c -0.28807,0.14553 -0.57093,0.35245 -0.91871,0.5032 l -3.76538,-1.77702 c -0.37911,-0.20748 -0.85741,-0.16519 -1.19474,0.10496 -0.34254,0.21044 -0.54331,0.64939 -0.56646,1.07253 l 0.14086,4.37929 c -0.22314,0.2 -0.49926,0.46475 -0.78212,0.66998 l -4.05723,-0.96902 c -0.4336,-0.14255 -0.83964,0.0137 -1.17174,0.34361 -0.27763,0.26492 -0.41544,0.7576 -0.31918,1.1703 l 0.9719,4.24702 c -0.21791,0.2597 -0.43571,0.52021 -0.64841,0.83962 l -4.22401,-0.17252 c -0.42315,-0.0231 -0.82624,0.1931 -1.03372,0.57221 -0.20747,0.37911 -0.28467,0.86725 -0.069,1.2695 l 1.72814,3.93935 c -0.2127,0.31941 -0.36602,0.63327 -0.51902,0.94745 l -4.08599,0.71742 c -0.47763,0.0417 -0.81263,0.37373 -0.9604,0.74762 -0.14255,0.43359 -0.10119,0.9097 0.10927,1.25225 l 2.47431,3.51378 c -0.0545,0.065 -0.0497,0.12433 -0.0446,0.18403 l -6.93699,7.34529 c 0,0 -1.01034,0.81016 0.48595,2.78486 l 12.76019,11.84163 -3.0609,2.67128 c -0.72481,-0.46136 -1.61365,-0.71885 -2.61377,-0.71885 -0.52021,0 -1.02174,0.0803 -1.49235,0.23003 l 0.26598,0.43275 c 0.38933,-0.11203 0.801,-0.17109 1.22637,-0.17108 2.444,0 4.12482,1.67937 4.12481,4.12337 0,0.81584 -0.22165,1.58085 -0.60671,2.23708 l 0.35367,0.36518 c 0.47133,-0.75453 0.74474,-1.64706 0.74474,-2.60226 0,-1.1664 -0.35232,-2.1806 -0.96758,-2.96027 l 3.33838,-2.78917 c 0.13421,-0.2539 0.3566,-0.42601 -0.14809,-1.27094 l -10.1042,-11.63454 c 0,0 2.60451,-1.82406 3.023,-2.17964 0.0663,0.34744 0.22194,0.77664 0.56214,1.30545 l 19.07177,18.71392 -2.67847,8.20074 c -1.09799,-0.74347 -2.51528,-0.94257 -3.99685,-0.46439 -0.49506,0.15979 -0.9467,0.39016 -1.34858,0.67717 l 0.38531,0.33067 c 0.3361,-0.2262 0.70943,-0.40993 1.11423,-0.54057 2.32586,-0.75071 4.44091,0.33247 5.1916,2.65834 0.25059,0.77639 0.27558,1.57194 0.1107,2.31472 l 0.44857,0.23865 c 0.21678,-0.86281 0.20281,-1.79531 -0.0906,-2.70434 -0.24403,-0.75609 -0.62324,-1.39481 -1.09985,-1.90066 l 0.0417,0.0172 3.69637,-7.61559 c 0.30724,-0.62369 0.25697,-1.07027 -0.0589,-1.38595 l -16.62335,-18.1431 c 1.63279,1.03343 3.7182,1.97626 6.13905,2.81936 0.64588,2.47232 2.55684,7.15596 10.43783,10.78288 5.85666,6.35697 11.06586,7.61785 15.56185,3.28663 -2.81245,-0.14518 -5.79281,-0.30997 -9.62983,-4.73585 2.75459,-0.4497 5.97846,-1.58244 9.53925,-0.33786 -1.71514,-3.85746 -9.33083,-10.08184 -14.20177,-1.35864 l -1.80433,-0.42844 c -2.37586,-1.8151 -4.78878,-3.90401 -6.31302,-6.15775 6.14285,1.50219 13.9168,2.40243 22.37663,2.40243 8.78454,0 16.79951,-0.97908 23.04517,-2.58645 -1.51537,2.32395 -3.99063,4.47746 -6.43091,6.34177 l -1.80577,0.42844 c -4.87094,-8.72319 -12.48806,-2.49882 -14.20321,1.35864 3.56079,-1.24458 6.78611,-0.11185 9.54069,0.33786 -3.83702,4.42588 -6.81738,4.59066 -9.62983,4.73585 4.49599,4.33121 9.7052,3.07034 15.56185,-3.28663 8.06941,-3.71363 9.87754,-8.52847 10.47952,-10.94965 0.27207,-0.0917 0.57041,-0.17436 0.83244,-0.26886 2.32771,-0.98182 4.21626,-2.07817 5.56684,-3.25786 l -15.84751,19.61105 c -0.74865,0.52794 -0.71564,1.34751 -0.0474,2.40243 l 2.15083,5.38856 c -0.80987,0.55365 -1.44492,1.40442 -1.79859,2.50019 -0.29338,0.90903 -0.30736,1.84152 -0.0906,2.70434 l 0.44856,-0.23865 c -0.16488,-0.74278 -0.13988,-1.53833 0.11071,-2.31472 0.75069,-2.32587 2.86574,-3.40905 5.19159,-2.65834 0.40481,0.13064 0.77814,0.31437 1.11423,0.54057 l 0.38531,-0.33067 c -0.40188,-0.28701 -0.85352,-0.51738 -1.34857,-0.67717 -1.29961,-0.41945 -2.54968,-0.31733 -3.57848,0.21566 l -1.22925,-6.65806 17.7381,-19.6125 c 0.46438,-0.85024 0.5491,-1.46005 0.5262,-1.85322 0.51166,0.28517 3.48215,2.07032 3.48215,2.07032 l -8.35054,13.53623 c -0.1646,0.50987 -0.14519,0.82409 -1.2e-4,1.00471 l 1.67352,1.64749 0.42537,-0.29776 -1.36554,-1.90476 10.94275,-14.90749 c 1.1411,-2.08513 0.006,-2.70866 0.006,-2.70866 l -7.39417,-5.42738 c -0.0806,-0.23359 -0.16078,-0.46779 -0.1869,-0.7663 l 2.39954,-3.5181 c 0.2724,-0.32463 0.28967,-0.80739 0.13371,-1.21487 -0.15596,-0.40747 -0.48025,-0.68202 -0.90863,-0.76486 l -4.15501,-0.71886 c -0.14553,-0.28807 -0.29585,-0.63638 -0.44137,-0.92445 l 1.69506,-3.99686 c 0.20747,-0.37911 0.16752,-0.85666 -0.10783,-1.25369 -0.21045,-0.34254 -0.58991,-0.55127 -1.00783,-0.5147 l -4.20102,0.12796 c -0.20522,-0.28285 -0.47049,-0.56254 -0.67572,-0.84538 l 0.9532,-4.23408 c 0.0828,-0.42837 -0.0196,-0.89985 -0.28466,-1.17749 -0.32986,-0.3321 -0.76193,-0.47582 -1.17462,-0.37955 l -4.06155,1.0179 c -0.2597,-0.21792 -0.51863,-0.43692 -0.78356,-0.71455 l 0.0992,-4.33903 c 0.0231,-0.42314 -0.19297,-0.82457 -0.51758,-1.09697 -0.38433,-0.26718 -0.80686,-0.29186 -1.20912,-0.0762 l -3.75388,1.7727 c -0.3141,-0.15299 -0.63327,-0.36602 -0.94746,-0.51901 l -0.67572,-4.27146 c -0.0418,-0.47763 -0.37085,-0.80975 -0.74474,-0.95752 -0.37911,-0.20748 -0.85885,-0.16519 -1.19618,0.10495 l -3.38582,2.52032 c -0.30897,-0.0933 -0.61905,-0.1851 -0.98772,-0.27317 l -1.43915,-4.08455 c -0.15597,-0.40747 -0.48746,-0.74096 -0.91583,-0.82381 -0.42837,-0.0828 -0.83675,0.0756 -1.16886,0.40543 l -2.84668,3.19605 c -0.30402,-0.0336 -0.67329,-0.12115 -1.03674,-0.14952 l -2.18676,-3.66043 c -0.21568,-0.40225 -0.59332,-0.60946 -1.01647,-0.6326 z m -7.37836,29.01026 c 2.37722,-2.9e-4 4.30344,2.87272 4.30308,6.41653 -2.9e-4,3.54312 -1.92632,6.41539 -4.30308,6.41509 -2.37608,-0.001 -4.3028,-2.87299 -4.30309,-6.41509 -3.6e-4,-3.54279 1.92655,-6.41538 4.30309,-6.41653 z m 17.57465,0.30911 c 2.37676,-2.9e-4 4.30423,2.87197 4.30452,6.41509 -2.9e-4,3.54312 -1.92776,6.41395 -4.30452,6.41366 -2.37608,-0.001 -4.30136,-2.87156 -4.30165,-6.41366 2.9e-4,-3.5421 1.92557,-6.41394 4.30165,-6.41509 z"
     sodipodi:nodetypes="ccccccscccccccccccccccccccsccccccccccccscccsccsccccccccscccsccscccccccccccccscccccccccccccsccssccscccccccccccccccscccccccccccccccccccccccccccccccccccccccc" /><path
     id="path10212"
     style="font-variation-settings:normal;opacity:1;vector-effect:none;fill:#000000;fill-opacity:1;stroke:none;stroke-width:9.33263;stroke-linecap:round;stroke-linejoin:round;stroke-miterlimit:4;stroke-dasharray:none;stroke-dashoffset:0;stroke-opacity:1;-inkscape-stroke:none;stop-color:#000000;stop-opacity:1"
     d="m 322.0702,176.91679 c -0.47132,-0.75453 -0.5482,-1.11976 -0.54821,-2.07496 0,-2.71554 1.90062,-4.61616 4.61617,-4.61616 0.52021,0 0.57039,0.006 1.041,0.15531 l -0.26612,0.43323 c -0.38932,-0.11202 -0.34951,-0.0968 -0.77488,-0.0968 -2.444,0 -4.12448,1.68048 -4.12447,4.12447 0,0.81584 0.0253,1.05375 0.41034,1.70998 z"
     sodipodi:nodetypes="cssccsscc" /><path
     id="path10214"
     style="fill:url(#linearGradient10216);stroke-width:0.273032"
     d="m 265.73482,107.1845 c 0.2903,11.35229 9.66686,23.13237 20.90242,29.64104 -2.59496,2.04904 -5.53153,3.61165 -8.73863,4.41918 v 0.22504 c -0.003,5.5e-4 -0.006,0.001 -0.008,0.002 v 0.44741 c 3.41026,-0.29058 6.62433,-1.19234 9.58545,-2.54262 0.72001,-0.29734 1.43571,-0.62326 2.148,-0.96627 0.69612,0.3352 1.39634,0.64934 2.09947,0.94281 2.97435,1.36249 6.20421,2.27393 9.63291,2.56608 v -0.44741 c -0.003,-5.6e-4 -0.006,-0.001 -0.008,-0.002 v -0.22504 c -3.20633,-0.80733 -6.14261,-2.36985 -8.73708,-4.41811 11.23504,-6.50892 20.61053,-18.29018 20.90082,-29.64211 l -6.74528,2.61514 -0.0234,0.009 -2.04454,0.7311 -6.12829,1.81311 -5.6e-4,5.5e-4 c 0.0207,0.3585 0.0325,0.71809 0.0325,1.0804 0,6.67097 -3.37003,14.80793 -8.97273,20.66511 -5.60647,-5.85753 -8.98447,-13.99175 -8.98447,-20.66513 0,-0.36232 0.0118,-0.72191 0.0325,-1.0804 l -5.6e-4,-5.6e-4 -6.12989,-1.81417 -2.04507,-0.7311 -0.0219,-0.008 z" /><path
     id="path10218"
     style="clip-rule:evenodd;fill:#a52b00;fill-rule:nonzero;stroke-width:0.0854353;stroke-linejoin:round;stroke-miterlimit:1.41421"
     d="m 394.51832,53.351691 c -0.42314,-0.02312 -0.82193,0.252045 -1.0294,0.631158 h 10e-4 l -2.20546,3.683431 c -0.35821,0.03135 -0.71432,0.06068 -1.07253,0.09201 l -2.86537,-3.178792 c -0.27016,-0.337331 -0.70442,-0.477265 -1.11711,-0.380995 -0.4127,0.09627 -0.74505,0.425479 -0.89282,0.79937 l -1.44491,4.096056 c -0.35303,0.09105 -0.70539,0.182281 -0.99346,0.3278 L 379.48224,56.8324 c -0.31941,-0.212693 -0.80671,-0.288768 -1.15448,-0.138021 -0.40225,0.215669 -0.67484,0.539216 -0.75768,0.967584 l -0.70448,4.331841 c -0.28807,0.145525 -0.57093,0.352453 -0.9187,0.503201 l -3.76538,-1.777018 c -0.37912,-0.20748 -0.85741,-0.165196 -1.19475,0.104953 -0.34254,0.210447 -0.54331,0.649389 -0.56646,1.072537 l 0.14087,4.379286 c -0.22315,0.200002 -0.49927,0.464751 -0.78212,0.669976 l -4.05724,-0.969021 c -0.4336,-0.142548 -0.83964,0.01371 -1.17174,0.343615 -0.27763,0.264925 -0.41544,0.757596 -0.31917,1.170301 l 0.97189,4.247016 c -0.21791,0.259703 -0.4357,0.520214 -0.64841,0.839627 l -4.22401,-0.172526 c -0.42314,-0.02312 -0.82624,0.193099 -1.03372,0.572211 -0.20747,0.379112 -0.28466,0.867254 -0.069,1.269504 l 1.72814,3.939345 c -0.2127,0.319412 -0.36602,0.633273 -0.51902,0.947456 l -4.08599,0.71742 c -0.47762,0.04174 -0.81262,0.373722 -0.96039,0.747613 -0.14255,0.433591 -0.10119,0.909699 0.10926,1.252252 l 2.47431,3.51378 c -0.0545,0.06495 -0.0497,0.124327 -0.0446,0.184027 l -6.93698,7.345297 c 0,0 -1.01035,0.810153 0.48595,2.784858 l 12.76018,11.841626 -3.06089,2.67128 c -0.72482,-0.46136 -1.61365,-0.71885 -2.61377,-0.71885 -0.52021,0 -1.02174,0.0803 -1.49235,0.23003 l 0.26597,0.43275 c 0.38933,-0.11202 0.80101,-0.17109 1.22638,-0.17108 2.44399,0 4.12481,1.67937 4.12481,4.12337 -10e-6,0.81584 -0.22166,1.58086 -0.60672,2.23708 l 0.35368,0.36518 c 0.47132,-0.75453 0.74473,-1.64706 0.74473,-2.60226 10e-6,-1.1664 -0.35232,-2.1806 -0.96758,-2.96027 l 3.33838,-2.78916 c 0.13422,-0.25391 0.3566,-0.42602 -0.14808,-1.27094 L 355.29936,95.433723 c 0,0 2.60451,-1.824057 3.023,-2.179634 0.0663,0.347434 0.22194,0.776636 0.56215,1.305447 l 19.07176,18.713924 -2.67846,8.20073 c -1.098,-0.74346 -2.51529,-0.94257 -3.99686,-0.46438 -0.49506,0.15979 -0.94669,0.39015 -1.34857,0.67716 l 0.3853,0.33068 c 0.3361,-0.22621 0.70943,-0.40993 1.11423,-0.54058 2.32586,-0.7507 4.44091,0.33248 5.1916,2.65834 0.25059,0.7764 0.27559,1.57195 0.11071,2.31473 l 0.44856,0.23865 c 0.21679,-0.86282 0.20281,-1.79531 -0.0906,-2.70434 -0.24404,-0.75609 -0.62325,-1.39481 -1.09986,-1.90066 l 0.0417,0.0172 3.69637,-7.61559 c 0.30723,-0.62369 0.25696,-1.07027 -0.059,-1.38595 L 363.04814,94.956346 c 1.63279,1.033426 3.71819,1.976261 6.13905,2.819363 0.64588,2.472321 2.55684,7.155951 10.43782,10.782881 5.85666,6.35696 11.06587,7.61785 15.56185,3.28662 -2.81245,-0.14518 -5.79281,-0.30997 -9.62983,-4.73584 2.75459,-0.44971 5.97847,-1.58244 9.53926,-0.33786 -1.71515,-3.85747 -9.33084,-10.081839 -14.20177,-1.35864 l -1.80434,-0.42845 c -2.37586,-1.8151 -4.78878,-3.90401 -6.31301,-6.15774 6.14284,1.50219 13.9168,2.40243 22.37663,2.40243 8.78453,0 16.79951,-0.97909 23.04516,-2.586457 -1.51537,2.323947 -3.99063,4.477457 -6.43091,6.341767 l -1.80577,0.42845 c -4.87094,-8.723198 -12.48806,-2.49883 -14.20321,1.35864 3.56079,-1.24458 6.78611,-0.11186 9.54069,0.33786 -3.83701,4.42587 -6.81737,4.59066 -9.62982,4.73584 4.49598,4.33121 9.70519,3.07034 15.56184,-3.28662 8.06942,-3.71364 9.87754,-8.52847 10.47953,-10.949656 0.27206,-0.09172 0.5704,-0.174354 0.83243,-0.268853 2.32771,-0.981828 4.21627,-2.07817 5.56685,-3.257867 l -15.84751,19.611056 c -0.74866,0.52793 -0.71564,1.34751 -0.0474,2.40242 l 2.15082,5.38856 c -0.80987,0.55366 -1.44491,1.40442 -1.79858,2.5002 -0.29339,0.90903 -0.30736,1.84152 -0.0906,2.70434 l 0.44857,-0.23865 c -0.16488,-0.74278 -0.13989,-1.53833 0.1107,-2.31473 0.75069,-2.32586 2.86574,-3.40904 5.1916,-2.65834 0.4048,0.13065 0.77813,0.31437 1.11423,0.54058 l 0.38531,-0.33068 c -0.40189,-0.28701 -0.85352,-0.51737 -1.34858,-0.67716 -1.2996,-0.41945 -2.54968,-0.31734 -3.57848,0.21566 l -1.22925,-6.65807 17.7381,-19.612492 c 0.46439,-0.850239 0.54911,-1.460052 0.5262,-1.853217 0.51167,0.285163 3.48216,2.070313 3.48216,2.070313 l -8.35054,13.536236 c -0.16461,0.50986 -0.14519,0.82408 -1.3e-4,1.0047 l 1.67353,1.64749 0.42536,-0.29776 -1.36554,-1.90475 10.94276,-14.907493 c 1.14109,-2.08513 0.006,-2.708659 0.006,-2.708659 l -7.39418,-5.427381 c -0.0806,-0.233589 -0.16078,-0.467786 -0.1869,-0.766304 l 2.39955,-3.518093 c 0.27239,-0.324634 0.28966,-0.807397 0.1337,-1.214871 -0.15596,-0.407474 -0.48025,-0.682018 -0.90863,-0.764865 l -4.155,-0.718859 c -0.14554,-0.288065 -0.29585,-0.636379 -0.44138,-0.924452 l 1.69506,-3.996854 c 0.20748,-0.379111 0.16753,-0.856661 -0.10782,-1.253688 -0.21046,-0.342546 -0.58992,-0.551273 -1.00784,-0.514703 l -4.20102,0.127957 c -0.20522,-0.282853 -0.47048,-0.562536 -0.67572,-0.845378 l 0.95321,-4.234077 c 0.0828,-0.428369 -0.0197,-0.899858 -0.28467,-1.17749 -0.32986,-0.332101 -0.76193,-0.475827 -1.17461,-0.379557 l -4.06156,1.017903 c -0.2597,-0.217922 -0.51862,-0.436922 -0.78356,-0.714545 l 0.0992,-4.33903 c 0.0231,-0.423147 -0.19296,-0.824577 -0.51757,-1.096978 -0.38434,-0.267178 -0.80687,-0.291858 -1.20913,-0.0762 l -3.75388,1.772705 c -0.3141,-0.152992 -0.63327,-0.366024 -0.94745,-0.519016 l -0.67573,-4.271457 c -0.0418,-0.477627 -0.37084,-0.809748 -0.74474,-0.95752 -0.37911,-0.207478 -0.85885,-0.165192 -1.19618,0.104954 l -3.38582,2.520318 c -0.30896,-0.0933 -0.61904,-0.185097 -0.98771,-0.273166 l -1.43916,-4.084554 c -0.15597,-0.407475 -0.48745,-0.740965 -0.91582,-0.823812 -0.42837,-0.08281 -0.83676,0.07561 -1.16887,0.405436 l -2.84668,3.196045 c -0.30402,-0.0336 -0.67328,-0.121152 -1.03673,-0.149523 l -2.18677,-3.660427 c -0.21568,-0.402253 -0.59332,-0.609456 -1.01647,-0.632596 z m -7.37836,29.010254 c 2.37722,-2.93e-4 4.30345,2.872725 4.30309,6.416531 -2.9e-4,3.543122 -1.92633,6.415386 -4.30309,6.415093 -2.37608,-0.0011 -4.30279,-2.872991 -4.30309,-6.415093 -3.5e-4,-3.542785 1.92655,-6.41538 4.30309,-6.416531 z m 17.57465,0.309109 c 2.37677,-2.92e-4 4.30424,2.871971 4.30453,6.415094 -2.9e-4,3.54312 -1.92776,6.413947 -4.30453,6.413655 -2.37608,-0.0011 -4.30136,-2.871554 -4.30165,-6.413655 2.9e-4,-3.542102 1.92557,-6.413944 4.30165,-6.415094 z"
     sodipodi:nodetypes="ccccccscccccccccccccccccccsccccccccccccscccsccsccccccccscccsccscccccccccccccscccccccccccccsccssccscccccccccccccccscccccccccccccccccccccccccccccccccccccccc" /><path
     id="path10220"
     style="fill:url(#linearGradient10222);stroke-width:0.273032"
     d="m 371.70615,46.569098 c 0.2903,11.352289 9.66686,23.132365 20.90242,29.641043 -2.59495,2.049032 -5.53153,3.611643 -8.73863,4.419174 v 0.225038 c -0.003,5.57e-4 -0.006,0.0014 -0.008,0.0022 v 0.447409 c 3.41027,-0.290572 6.62433,-1.192334 9.58546,-2.542611 0.72,-0.297348 1.4357,-0.623264 2.14799,-0.966277 0.69612,0.335202 1.39635,0.649339 2.09947,0.942813 2.97436,1.36249 6.20421,2.273931 9.63291,2.566075 v -0.447409 c -0.003,-5.57e-4 -0.006,-0.0014 -0.008,-0.0022 v -0.225038 c -3.20633,-0.807326 -6.14261,-2.36985 -8.73708,-4.418107 11.23504,-6.508917 20.61053,-18.290183 20.90082,-29.64211 l -6.74528,2.615135 -0.0234,0.0091 -2.04454,0.731107 -6.12829,1.813104 -5.5e-4,5.56e-4 c 0.0207,0.358492 0.0325,0.718084 0.0325,1.080397 0,6.670965 -3.37003,14.807933 -8.97273,20.665112 -5.60648,-5.857531 -8.98448,-13.991755 -8.98448,-20.665135 0,-0.362313 0.0118,-0.721905 0.0325,-1.080397 l -5.5e-4,-5.56e-4 -6.12989,-1.81417 -2.04508,-0.731107 -0.0219,-0.008 z" /><path
     id="path10282"
     style="stroke-width:1"
     d="m 13.062132,146.78472 c -0.528,0 -1.009568,0.27098 -1.279569,0.71598 l -2.7201601,4.39942 c -0.428,0.035 -0.8570056,0.0781 -1.2810056,0.12508 l -3.5195312,-3.77976 c -0.3570006,-0.382 -0.8873363,-0.55388 -1.4003366,-0.45288 -0.5150002,0.103 -0.9389877,0.46408 -1.1199812,0.95608 l -1.8000221,4.82929 c -0.41799995,0.12 -0.83131236,0.24668 -1.2393122,0.37668 l -4.1808807,-3.00914 c -0.4250004,-0.307 -0.9782829,-0.37165 -1.4592829,-0.16965 -0.483,0.2 -0.8303878,0.63674 -0.9143884,1.14874 l -0.8295626,5.09095 c -0.3839997,0.199 -0.7641091,0.40347 -1.1401095,0.61247 l -4.6898329,-2.13932 c -0.477,-0.218 -1.030785,-0.17411 -1.470785,0.11789 -0.435993,0.29 -0.689976,0.7882 -0.669976,1.3112 l 0.179715,5.17003 c -0.334,0.26699 -0.665025,0.53918 -0.992024,0.81518 l -5.030573,-1.19043 c -0.510999,-0.119 -1.049026,0.034 -1.419026,0.404 -0.372,0.371 -0.523999,0.90503 -0.403998,1.41903 l 1.180365,5.03057 c -0.275,0.326 -0.546748,0.65659 -0.813748,0.99059 l -5.17003,-0.18115 c -0.521,-0.015 -1.01976,0.23541 -1.309761,0.67141 -0.291999,0.43399 -0.33633,0.99078 -0.11933,1.47078 l 2.139323,4.6999 c -0.208,0.377 -0.413468,0.75711 -0.612467,1.14011 l -5.089519,0.82669 c -0.517,0.084 -0.953173,0.43039 -1.150173,0.91439 -0.2,0.485 -0.13535,1.04072 0.16965,1.46072 l 3.01058,4.17944 c -0.131,0.413 -0.25812,0.82881 -0.37812,1.25081 l -4.830729,1.79859 c -0.49,0.183 -0.851206,0.60842 -0.953206,1.12142 -0.102,0.51399 0.06988,1.0389 0.45288,1.3989 l 3.779759,3.52096 c -0.047,0.425 -0.08908,0.85258 -0.125082,1.27957 l -4.38935,2.72016 c -0.445,0.275 -0.715983,0.76064 -0.715983,1.28964 0,0.529 0.270983,1.00956 0.715983,1.27956 l 4.38935,2.72016 c 0.036,0.428 0.07808,0.85601 0.125082,1.28101 l -3.779759,3.51953 c -0.382999,0.357 -0.55488,0.88734 -0.45288,1.40034 0.102,0.515 0.463206,0.93798 0.953206,1.11998 l 4.830729,1.80002 c 0.12,0.418 0.24712,0.83238 0.37812,1.24938 l -3.01058,4.17944 c -0.306,0.426 -0.37065,0.97972 -0.16965,1.46072 0.201,0.485 0.638237,0.83139 1.160237,0.91439 l 5.089519,0.82812 c 0.198994,0.38601 0.402467,0.76611 0.612467,1.14012 l -2.139323,4.68983 c -0.218,0.477 -0.172669,1.0294 0.119331,1.46934 0.291999,0.43701 0.78876,0.69242 1.30976,0.67141 l 2.064561,-0.0719 a 3.6805556,3.6805556 0 0 0 3.286621,3.54685 l -0.554958,2.36505 c -0.12,0.50999 0.03056,1.04039 0.402561,1.41039 0.369,0.373 0.90647,0.52257 1.420464,0.40257 l 5.029134,-1.18037 c 0.327,0.278 0.658025,0.54774 0.992025,0.81375 l -0.179715,5.17003 c -0.02,0.523 0.235414,1.01975 0.671414,1.30976 0.434,0.291 0.989353,0.33589 1.469346,0.11789 l 2.221274,-1.01359 a 3.6805556,3.6805556 0 0 0 3.174479,1.83022 3.6805556,3.6805556 0 0 0 0.8022456,-0.092 l 0.4629454,2.83806 c 0.084,0.51799 0.4289503,0.95623 0.91295,1.16023 0.4830001,0.201 1.0407205,0.13535 1.4607205,-0.16965 l 4.1794431,-3.00914 c 0.41300027,0.131 0.82881398,0.25812 1.25081397,0.37812 l 1.80002203,4.83073 c 0.1829995,0.49 0.6069811,0.8532 1.1199813,0.9532 0.5139999,0.10401 1.0388986,-0.0689 1.3988989,-0.45288 l 3.5209689,-3.77976 c 0.4249996,0.049 0.8525683,0.09 1.279568,0.12796 l 2.7201613,4.39079 c 0.273993,0.443 0.760567,0.71598 1.279568,0.71598 0.518999,0 1.009632,-0.27198 1.289632,-0.71598 l 2.72016,-4.39079 c 0.428,-0.038 0.856006,-0.079 1.281006,-0.12796 l 3.519531,3.77976 c 0.357,0.384 0.887343,0.55689 1.400336,0.45288 0.515001,-0.101 0.938982,-0.4632 1.119982,-0.9532 l 1.800022,-4.83073 c 0.418,-0.12 0.832376,-0.24712 1.249376,-0.37812 l 4.180881,3.00914 c 0.425,0.305 0.978282,0.37065 1.459283,0.16965 0.483997,-0.199 0.830389,-0.63824 0.914386,-1.16023 l 0.455756,-2.79781 a 3.6805556,3.6805556 0 0 0 0.588028,0.0518 3.6805556,3.6805556 0 0 0 3.223364,-1.90929 l 2.392361,1.09266 c 0.477,0.218 1.030784,0.17311 1.47078,-0.11789 0.436006,-0.292 0.688978,-0.78676 0.669979,-1.30976 l -0.179715,-5.17003 c 0.334004,-0.26701 0.664584,-0.53575 0.990585,-0.81375 l 5.030576,1.18037 c 0.511001,0.12 1.05046,-0.0296 1.420459,-0.40257 0.372001,-0.371 0.522565,-0.9044 0.402564,-1.41039 l -0.553518,-2.36074 a 3.6805556,3.6805556 0 0 0 0.317735,0.0201 3.6805556,3.6805556 0 0 0 3.671928,-3.54685 l 1.367268,0.0474 c 0.520997,0.021 1.021199,-0.2344 1.311197,-0.67141 0.292001,-0.43594 0.336896,-0.99034 0.117896,-1.46934 l -2.140766,-4.68983 c 0.209004,-0.37901 0.414468,-0.75912 0.612467,-1.14012 l 5.089524,-0.82812 c 0.517994,-0.083 0.954169,-0.42939 1.150173,-0.91439 0.199994,-0.483 0.137344,-1.04072 -0.169651,-1.46072 L 58.236635,213.489 c 0.130004,-0.413 0.257123,-0.82738 0.378125,-1.24938 l 4.830729,-1.80002 c 0.491001,-0.184 0.851769,-0.60698 0.95177,-1.11998 0.103939,-0.514 -0.06745,-1.04034 -0.45145,-1.40034 l -3.779754,-3.51953 c 0.046,-0.425 0.08808,-0.85401 0.12508,-1.28101 l 4.38935,-2.72016 c 0.445001,-0.274 0.715986,-0.76056 0.715986,-1.27956 0,-0.519 -0.269549,-1.00964 -0.714551,-1.28964 h -0.03163 l -4.38935,-2.72016 c -0.037,-0.42799 -0.07908,-0.85457 -0.12508,-1.27957 l 3.779761,-3.52096 c 0.384,-0.358 0.556883,-0.88691 0.452878,-1.3989 -0.101002,-0.515 -0.462204,-0.94042 -0.953205,-1.12142 l -4.830729,-1.79859 c -0.121002,-0.418 -0.248121,-0.83381 -0.378118,-1.25081 l 3.010576,-4.17944 c 0.307003,-0.425 0.369653,-0.97872 0.169652,-1.46072 -0.200001,-0.483 -0.63717,-0.82939 -1.150174,-0.91439 l -5.089516,-0.82669 c -0.197999,-0.386 -0.404471,-0.76611 -0.612467,-1.14011 l 2.140759,-4.6999 c 0.219,-0.478 0.174105,-1.03079 -0.117896,-1.47078 -0.290999,-0.436 -0.783759,-0.69141 -1.309755,-0.67141 l -5.170032,0.18115 c -0.267002,-0.334 -0.53968,-0.66559 -0.81662,-0.99059 l 1.190424,-5.03057 c 0.120001,-0.511 -0.032,-1.04903 -0.403999,-1.41903 -0.368998,-0.37 -0.904026,-0.524 -1.419024,-0.404 l -5.030569,1.19043 c -0.326001,-0.276 -0.65703,-0.54819 -0.992027,-0.81518 l 0.18115,-5.17003 c 0.02,-0.523 -0.235409,-1.0212 -0.671415,-1.3112 -0.436999,-0.292 -0.98934,-0.33489 -1.469344,-0.11789 l -4.68983,2.13932 c -0.379001,-0.208 -0.759114,-0.41347 -1.140111,-0.61247 l -0.831003,-5.09095 c -0.084,-0.516 -0.428947,-0.95274 -0.912949,-1.14874 -0.483,-0.201 -1.04072,-0.13635 -1.460721,0.16965 l -4.179443,3.00914 c -0.412,-0.131 -0.82675,-0.25668 -1.24075,-0.37668 l -1.800021,-4.82929 c -0.183,-0.492 -0.606982,-0.85408 -1.119982,-0.95608 -0.514,-0.101 -1.038899,0.0709 -1.398898,0.45288 l -3.520969,3.77976 c -0.425001,-0.047 -0.852568,-0.0901 -1.279569,-0.12508 l -2.72016,-4.39942 c -0.275,-0.445 -0.761632,-0.71598 -1.289632,-0.71598 z m -0.08914,6.58762 a 45.769737,46.117138 0 0 1 45.769718,46.11621 45.769737,46.117138 0 0 1 -7.763668,25.56836 3.6805556,3.6805556 0 0 0 -0.74186,-0.0762 3.6805556,3.6805556 0 0 0 -3.680556,3.68055 3.6805556,3.6805556 0 0 0 0.380989,1.62319 45.769737,46.117138 0 0 1 -8.737006,7.67453 3.6805556,3.6805556 0 0 0 -3.148597,-1.77702 3.6805556,3.6805556 0 0 0 -3.680555,3.68056 3.6805556,3.6805556 0 0 0 0.402561,1.66919 45.769737,46.117138 0 0 1 -18.801026,4.07449 45.769737,46.117138 0 0 1 -18.7708331,-4.15932 3.6805556,3.6805556 0 0 0 0.3637427,-1.58436 3.6805556,3.6805556 0 0 0 -3.6805556,-3.68056 3.6805556,3.6805556 0 0 0 -3.063775,1.64619 45.769737,46.117138 0 0 1 -8.256809,-6.96143 3.6805556,3.6805556 0 0 0 0.741862,-2.20546 3.6805556,3.6805556 0 0 0 -3.680555,-3.68055 3.6805556,3.6805556 0 0 0 -1.472223,0.31342 45.769737,46.117138 0 0 1 -7.950575,-25.80558 45.769737,46.117138 0 0 1 45.769721,-46.11621 z m -36.346923,72.34448 a 2.9444444,2.9444444 0 0 1 2.944444,2.94444 2.9444444,2.9444444 0 0 1 -2.944444,2.94445 2.9444444,2.9444444 0 0 1 -2.944445,-2.94445 2.9444444,2.9444444 0 0 1 2.944445,-2.94444 z m 73.611113,0 a 2.9444444,2.9444444 0 0 1 2.944444,2.94444 2.9444444,2.9444444 0 0 1 -2.944444,2.94445 2.9444444,2.9444444 0 0 1 -2.944445,-2.94445 2.9444444,2.9444444 0 0 1 2.944445,-2.94444 z m -59.351836,11.20126 a 2.9444444,2.9444444 0 0 1 2.9444445,2.94444 2.9444444,2.9444444 0 0 1 -2.9444445,2.94444 2.9444444,2.9444444 0 0 1 -2.944444,-2.94444 2.9444444,2.9444444 0 0 1 2.944444,-2.94444 z m 44.166666,0 a 2.9444444,2.9444444 0 0 1 2.944444,2.94444 2.9444444,2.9444444 0 0 1 -2.944444,2.94444 2.9444444,2.9444444 0 0 1 -2.944444,-2.94444 2.9444444,2.9444444 0 0 1 2.944444,-2.94444 z" /><path
     id="path10284"
     style="clip-rule:evenodd;fill:#000000;fill-rule:nonzero;stroke-width:0.0854353;stroke-linejoin:round;stroke-miterlimit:1.41421"
     d="m -10.15556,161.16333 c 0.13021,5.092 2.0919375,10.26856 5.2261013,15.01839 l 0.638346,-3.92497 c 0.082841,-0.42837 0.3554254,-0.75191 0.757677,-0.96758 0.3477742,-0.15075 0.8350761,-0.0747 1.1544865,0.13802 l 3.4160156,2.58933 c 0.2880734,-0.14552 0.6404306,-0.23675 0.9934629,-0.3278 l 1.4449051,-4.09606 c 0.1477699,-0.37389 0.4801189,-0.7031 0.8928226,-0.79937 0.1456234,-0.034 0.291355,-0.0289 0.4341907,-0.006 -0.030606,-0.464 -0.048883,-0.92268 -0.048883,-1.37446 0,-0.36231 0.012318,-0.72267 0.033067,-1.08116 h -0.00144 l -6.1289877,-1.8144 -2.0458714,-0.7318 -0.021565,-0.007 z m 14.9580077,7.62421 c 0.4214921,6.39004 3.7084843,13.82886 8.9354103,19.28985 4.583101,-4.79127 7.669568,-11.10697 8.642118,-16.89893 l -0.552084,-1.56711 c -0.155968,-0.40747 -0.487456,-0.74096 -0.915826,-0.82381 -0.428369,-0.0828 -0.836753,0.0756 -1.168863,0.40544 l -2.84668,3.19604 c -0.304021,-0.0336 -0.673146,-0.12115 -1.036594,-0.14952 l -2.186768,-3.66043 c -0.215677,-0.40225 -0.593319,-0.60945 -1.016466,-0.63259 -0.423145,-0.0231 -0.821933,0.25204 -1.029405,0.63115 h 0.0014 l -2.2054584,3.68343 c -0.3582174,0.0314 -0.7143222,0.0607 -1.0725367,0.092 L 5.485363,169.17429 c -0.1748286,-0.2183 -0.4209577,-0.3443 -0.6829153,-0.38675 z m 17.5775283,2.39092 0.887071,2.51745 c 0.36867,0.0881 0.67875,0.17986 0.987712,0.27316 l 3.385823,-2.52032 c 0.33733,-0.27014 0.817069,-0.31243 1.196181,-0.10495 0.373891,0.14777 0.702904,0.47989 0.744737,0.95752 l 0.675727,4.27146 c 0.314182,0.15299 0.633351,0.36602 0.947456,0.51901 l 0.852566,-0.40256 c 3.33152,-4.88707 5.427677,-10.25258 5.562526,-15.5259 l -6.74433,2.6152 -0.02444,0.009 -2.044433,0.7318 -6.12755,1.81296 c 0.02075,0.35849 0.03163,0.71885 0.03163,1.08116 0,1.21401 -0.114313,2.47685 -0.330675,3.76538 z m 9.677273,5.51077 c -3.84027,5.63338 -9.32155,10.63018 -15.337565,14.11551 2.594471,2.04826 5.530676,3.61078 8.737006,4.4181 v 0.22572 c 0.0026,8e-4 0.006,0.002 0.0086,0.003 v 0.44713 c -3.428699,-0.29214 -6.658345,-1.20384 -9.632703,-2.56633 -0.703123,-0.29347 -1.404388,-0.60794 -2.100505,-0.94314 -0.712289,0.34302 -1.427943,0.6688 -2.14795,0.96615 -2.9611221,1.35028 -6.1749965,2.25275 -9.5852587,2.54332 v -0.44713 c 0.0026,-8e-4 0.00593,-0.002 0.00863,-0.003 v -0.22572 c 3.2070985,-0.80753 6.1434884,-2.36907 8.7384437,-4.4181 -6.1959137,-3.58925 -11.8221795,-8.78342 -15.6754282,-14.62302 l -0.066135,0.40687 c -0.2880661,0.14553 -0.5709271,0.35246 -0.9187013,0.5032 l -3.7653813,-1.77701 c -0.3791122,-0.20748 -0.8574102,-0.1652 -1.1947422,0.10495 -0.342544,0.21045 -0.54331,0.64939 -0.566461,1.07254 l 0.140897,4.37928 c -0.223145,0.2 -0.499265,0.46475 -0.782118,0.66998 l -4.057237,-0.96902 c -0.433602,-0.14255 -0.83964,0.0137 -1.17174,0.34361 -0.277631,0.26493 -0.415442,0.7576 -0.319173,1.1703 l 0.971897,4.24702 c -0.217913,0.2597 -0.43571,0.52021 -0.648411,0.83962 l -4.224012,-0.17252 c -0.423147,-0.0231 -0.826241,0.1931 -1.033719,0.57221 -0.207472,0.37911 -0.284666,0.86725 -0.06901,1.2695 l 1.728135,3.93935 c -0.212693,0.31941 -0.366016,0.63327 -0.519016,0.94745 l -4.085991,0.71743 c -0.477624,0.0417 -0.812625,0.37372 -0.960395,0.74761 -0.142548,0.43359 -0.101188,0.9097 0.109266,1.25225 l 2.474311,3.51378 c -0.05446,0.065 -0.04971,0.12433 -0.04457,0.18403 l -6.936985,7.34529 c 0,0 -1.010347,0.81016 0.485949,2.78486 l 12.759739,11.84104 -3.0609,2.67128 c -0.72481,-0.46137 -1.613647,-0.71886 -2.61377,-0.71886 -0.520208,0 -1.021738,0.0803 -1.49235,0.23004 l 0.265978,0.43275 c 0.389328,-0.11203 0.801006,-0.1711 1.226372,-0.17109 2.443999,0 4.124816,1.67937 4.12481,4.12337 -2e-6,0.81584 -0.221651,1.58086 -0.606716,2.23709 l 0.353678,0.36518 c 0.471326,-0.75453 0.744735,-1.64707 0.744738,-2.60227 3e-6,-1.1664 -0.352325,-2.18059 -0.967584,-2.96026 l 3.338379,-2.78917 c 0.134217,-0.25391 0.356603,-0.42602 -0.148085,-1.27094 L -26.56281,210.02845 c 0,0 2.605031,-1.824 3.023519,-2.17958 0.06635,0.34744 0.22194,0.77664 0.562147,1.30545 l 19.0713157,18.71333 -2.6784661,8.20073 c -1.0979988,-0.74346 -2.515288,-0.94257 -3.9968536,-0.46438 -0.495062,0.15979 -0.946697,0.39015 -1.348578,0.67716 l 0.385308,0.33068 c 0.336096,-0.22621 0.709425,-0.40993 1.11423,-0.54058 2.3258543,-0.7507 4.4409084,0.33248 5.1915967,2.65834 0.2505877,0.77638 0.275586,1.57194 0.1107037,2.31472 l 0.4485677,0.23866 c 0.2167826,-0.86281 0.2028112,-1.79531 -0.090576,-2.70434 -0.2440326,-0.75609 -0.6232454,-1.39481 -1.0998531,-1.90066 l 0.041693,0.0173 3.6963709,-7.61559 c 0.3072336,-0.62369 0.2569653,-1.07027 -0.058946,-1.38596 l -16.6228609,-18.1426 c 1.632788,1.03343 3.718193,1.97626 6.139051,2.81936 0.64588,2.47233 2.556838,7.15596 10.4378262,10.78288 5.8566561,6.35697 11.0658619,7.61785 15.5618488,3.28662 -2.812452,-0.14518 -5.792813,-0.30996 -9.629829,-4.73584 2.7545845,-0.4497 5.9784641,-1.58244 9.539253,-0.33786 -1.715146,-3.85746 -9.3308327,-10.08184 -14.20176895,-1.35864 l -1.80433495,-0.42844 c -2.3758612,-1.8151 -4.7887796,-3.90401 -6.3130155,-6.15775 6.1428465,1.50219 13.9168004,2.40243 22.3766284,2.40243 8.784537,0 16.799514,-0.97908 23.045162,-2.58645 -1.515366,2.32395 -3.990627,4.47746 -6.430905,6.34177 l -1.805773,0.42844 c -4.870936,-8.7232 -12.488061,-2.49882 -14.203206,1.35864 3.560786,-1.24458 6.786107,-0.11185 9.54069,0.33786 -3.837016,4.42588 -6.817376,4.59066 -9.629828,4.73584 4.495987,4.33121 9.705193,3.07035 15.561849,-3.28662 8.069411,-3.71363 9.877536,-8.52847 10.47952,-10.94965 0.272067,-0.0917 0.570405,-0.17436 0.832439,-0.26886 2.327708,-0.98182 4.21626,-2.07816 5.56684,-3.25786 l -15.847956,19.61046 c -0.748659,0.52793 -0.715643,1.34751 -0.04744,2.40242 l 2.150825,5.38857 c -0.809868,0.55365 -1.444914,1.40441 -1.798584,2.50019 -0.293387,0.90903 -0.307358,1.84152 -0.09058,2.70434 l 0.448567,-0.23866 c -0.164882,-0.74278 -0.139883,-1.53833 0.110704,-2.31472 0.750689,-2.32586 2.865746,-3.40904 5.191599,-2.65834 0.404802,0.13065 0.778136,0.31437 1.114229,0.54058 l 0.38531,-0.33068 c -0.401887,-0.28701 -0.853528,-0.51737 -1.348577,-0.67716 -1.299605,-0.41945 -2.549676,-0.31734 -3.578482,0.21566 l -1.229248,-6.65807 17.738552,-19.6119 c 0.464383,-0.85024 0.549102,-1.46005 0.526202,-1.85321 0.511663,0.28516 3.482151,2.07031 3.482151,2.07031 l -8.351696,13.5361 c -0.164602,0.50987 -0.145065,0.82291 0,1.00353 l 1.673505,1.64763 0.42556,-0.29761 -1.365832,-1.90498 10.943904,-14.90625 c 1.141097,-2.08513 0.0057,-2.70866 0.0057,-2.70866 l -7.394177,-5.42738 c -0.0806,-0.23359 -0.160774,-0.46778 -0.186899,-0.7663 l 2.399546,-3.5181 c 0.272398,-0.32463 0.289667,-0.80739 0.133707,-1.21487 -0.15596,-0.40747 -0.480254,-0.68202 -0.908634,-0.76486 l -4.155001,-0.71886 c -0.145536,-0.28807 -0.29585,-0.63638 -0.441379,-0.92445 l 1.695065,-3.99686 c 0.207473,-0.37911 0.167524,-0.85666 -0.107826,-1.25369 -0.210454,-0.34254 -0.589919,-0.55127 -1.007839,-0.5147 l -4.201016,0.12796 c -0.205213,-0.28285 -0.470485,-0.56254 -0.67572,-0.84538 l 0.953205,-4.23408 c 0.0828,-0.42837 -0.01965,-0.89985 -0.284669,-1.17749 -0.329859,-0.3321 -0.761927,-0.47582 -1.174613,-0.37955 l -4.061551,1.0179 c -0.2597,-0.21792 -0.518628,-0.43692 -0.783561,-0.71454 l 0.09921,-4.33903 c 0.02311,-0.42315 -0.192964,-0.82458 -0.517574,-1.09698 -0.384331,-0.26718 -0.806866,-0.29186 -1.209121,-0.0762 z m -26.7789172,20.2675 c 2.3772244,-2.9e-4 4.3034454,2.87272 4.3030869,6.41653 -2.901e-4,3.54312 -1.9263226,6.41539 -4.3030869,6.41509 -2.3760806,-0.001 -4.30279547,-2.87299 -4.30308697,-6.41509 -3.5849e-4,-3.54278 1.92654857,-6.41538 4.30308697,-6.41653 z m 17.5746532,0.30911 c 2.376765,-2.9e-4 4.304234,2.87197 4.304524,6.41509 -2.9e-4,3.54312 -1.927759,6.41395 -4.304524,6.41366 -2.37608,-0.001 -4.30136,-2.87156 -4.30165,-6.41366 2.9e-4,-3.5421 1.92557,-6.41394 4.30165,-6.41509 z" /><path
     id="path10286"
     style="font-variation-settings:normal;opacity:1;vector-effect:none;fill:#000000;fill-opacity:1;stroke:none;stroke-width:9.33263;stroke-linecap:round;stroke-linejoin:round;stroke-miterlimit:4;stroke-dasharray:none;stroke-dashoffset:0;stroke-opacity:1;-inkscape-stroke:none;stop-color:#000000;stop-opacity:1"
     d="m 46.179455,230.89558 c -0.47132,-0.75453 -0.5482,-1.11976 -0.54821,-2.07496 0,-2.71555 1.90062,-4.61616 4.61617,-4.61616 0.52021,0 0.57039,0.006 1.041,0.1553 l -0.26612,0.43324 c -0.38932,-0.11203 -0.34951,-0.0969 -0.77488,-0.0969 -2.444,0 -4.12448,1.68048 -4.12447,4.12447 0,0.81584 0.0253,1.05375 0.41034,1.70998 z"
     sodipodi:nodetypes="cssccsscc" /><path
     id="path10288"
     style="stroke-width:1;fill-opacity:1;fill:url(#linearGradient11598)"
     d="m 186.01506,20.668501 c -0.528,0 -1.00957,0.270983 -1.27957,0.715983 l -2.72016,4.399414 c -0.428,0.035 -0.85701,0.07808 -1.28101,0.125081 l -3.51953,-3.779758 c -0.357,-0.382 -0.88733,-0.553881 -1.40033,-0.452881 -0.51501,0.103 -0.93899,0.464082 -1.11999,0.956082 l -1.80002,4.829292 c -0.418,0.119999 -0.83131,0.246682 -1.23931,0.376681 l -4.18088,-3.009141 c -0.425,-0.307 -0.97828,-0.371651 -1.45928,-0.169651 -0.483,0.2 -0.83039,0.636736 -0.91439,1.148736 l -0.82956,5.090951 c -0.384,0.19901 -0.76411,0.40347 -1.14011,0.61247 l -4.68984,-2.13932 c -0.477,-0.218 -1.03078,-0.17411 -1.47078,0.11789 -0.436,0.29 -0.68998,0.7882 -0.66998,1.3112 l 0.17972,5.17003 c -0.334,0.26699 -0.66503,0.53919 -0.99203,0.81519 l -5.03057,-1.19043 c -0.511,-0.119 -1.04903,0.034 -1.41903,0.404 -0.372,0.371 -0.52399,0.90502 -0.40399,1.41902 l 1.18036,5.03057 c -0.275,0.326 -0.54675,0.65659 -0.81375,0.99059 L 143.831,43.25935 c -0.521,-0.015 -1.01976,0.23541 -1.30976,0.67141 -0.292,0.434 -0.33633,0.99079 -0.11933,1.47079 l 2.13932,4.69989 c -0.208,0.377 -0.41346,0.75711 -0.61246,1.14011 l -5.08952,0.82669 c -0.517,0.084 -0.95317,0.43039 -1.15017,0.91439 -0.2,0.485 -0.13535,1.04072 0.16965,1.46072 l 3.01058,4.17944 c -0.131,0.413 -0.25812,0.82882 -0.37812,1.25082 l -4.83073,1.79858 c -0.49,0.183 -0.85121,0.60842 -0.95321,1.12142 -0.102,0.51399 0.0699,1.0389 0.45288,1.3989 l 3.77976,3.52097 c -0.047,0.425 -0.0891,0.85257 -0.12508,1.27956 l -4.38935,2.72017 c -0.445,0.275 -0.71599,0.76063 -0.71599,1.28963 0,0.529 0.27099,1.00957 0.71599,1.27957 l 4.38935,2.72016 c 0.036,0.428 0.0781,0.856 0.12508,1.281 l -3.77976,3.51953 c -0.383,0.357 -0.55488,0.88734 -0.45288,1.40034 0.102,0.515 0.46321,0.93798 0.95321,1.11998 l 4.83073,1.80002 c 0.12,0.418 0.24712,0.83239 0.37812,1.24938 l -3.01058,4.17944 c -0.306,0.426 -0.37065,0.97972 -0.16965,1.46072 0.201,0.48501 0.63823,0.83139 1.16023,0.91439 l 5.08952,0.82813 c 0.199,0.386 0.40247,0.76611 0.61247,1.14011 l -2.13932,4.68983 c -0.218,0.477 -0.17267,1.02941 0.11933,1.46934 0.292,0.43701 0.78876,0.69242 1.30976,0.67142 l 2.06456,-0.0719 a 3.6805556,3.6805556 0 0 0 3.28662,3.54685 l -0.55496,2.36504 c -0.12,0.51 0.0306,1.0404 0.40256,1.4104 0.369,0.373 0.90647,0.52256 1.42047,0.40256 l 5.02913,-1.18037 c 0.327,0.278 0.65802,0.54775 0.99202,0.81375 l -0.17971,5.17003 c -0.02,0.523 0.23541,1.01976 0.67141,1.30977 0.434,0.29099 0.98936,0.33588 1.46935,0.11788 l 2.22127,-1.01358 a 3.6805556,3.6805556 0 0 0 3.17448,1.83021 3.6805556,3.6805556 0 0 0 0.80225,-0.092 l 0.46294,2.83805 c 0.084,0.51799 0.42895,0.95624 0.91295,1.16024 0.483,0.20099 1.04072,0.13535 1.46072,-0.16965 l 4.17945,-3.00915 c 0.413,0.131 0.82881,0.25812 1.25081,0.37812 l 1.80002,4.83073 c 0.183,0.49 0.60698,0.85321 1.11998,0.95321 0.514,0.104 1.0389,-0.0689 1.3989,-0.45288 l 3.52097,-3.77976 c 0.425,0.049 0.85257,0.09 1.27957,0.12796 l 2.72016,4.39078 c 0.274,0.44301 0.76057,0.71599 1.27957,0.71599 0.519,0 1.00963,-0.27199 1.28963,-0.71599 l 2.72016,-4.39078 c 0.428,-0.038 0.85601,-0.079 1.28101,-0.12796 l 3.51953,3.77976 c 0.357,0.384 0.88734,0.55688 1.40033,0.45288 0.51501,-0.10101 0.93899,-0.46321 1.11999,-0.95321 l 1.80002,-4.83073 c 0.418,-0.12 0.83237,-0.24712 1.24937,-0.37812 l 4.18089,3.00915 c 0.425,0.305 0.97828,0.37064 1.45928,0.16965 0.484,-0.199 0.83039,-0.63824 0.91439,-1.16024 l 0.45575,-2.7978 a 3.6805556,3.6805556 0 0 0 0.58803,0.0518 3.6805556,3.6805556 0 0 0 3.22336,-1.90929 l 2.39236,1.09266 c 0.477,0.218 1.03079,0.17311 1.47078,-0.11788 0.43601,-0.29201 0.68898,-0.78677 0.66998,-1.30977 l -0.17971,-5.17003 c 0.334,-0.267 0.66458,-0.53575 0.99058,-0.81375 l 5.03058,1.18037 c 0.511,0.12 1.05046,-0.0296 1.42046,-0.40256 0.372,-0.371 0.52256,-0.9044 0.40256,-1.4104 l -0.55352,-2.36073 a 3.6805556,3.6805556 0 0 0 0.31774,0.0201 3.6805556,3.6805556 0 0 0 3.67193,-3.54684 l 1.36726,0.0474 c 0.521,0.021 1.0212,-0.23441 1.3112,-0.67142 0.292,-0.43594 0.3369,-0.99034 0.1179,-1.46934 l -2.14077,-4.68983 c 0.20901,-0.379 0.41447,-0.75911 0.61247,-1.14011 l 5.08952,-0.82813 c 0.518,-0.083 0.95417,-0.42938 1.15018,-0.91439 0.19999,-0.483 0.13734,-1.04072 -0.16966,-1.46072 l -3.01058,-4.17944 c 0.13,-0.41299 0.25712,-0.82738 0.37813,-1.24938 l 4.83073,-1.80002 c 0.491,-0.184 0.85176,-0.60698 0.95176,-1.11998 0.10394,-0.514 -0.0675,-1.04034 -0.45144,-1.40034 l -3.77976,-3.51953 c 0.046,-0.425 0.0881,-0.854 0.12508,-1.281 l 4.38935,-2.72016 c 0.445,-0.274 0.71599,-0.76057 0.71599,-1.27957 0,-0.519 -0.26955,-1.00963 -0.71455,-1.28963 h -0.0316 l -4.38935,-2.72017 c -0.037,-0.42799 -0.0791,-0.85456 -0.12508,-1.27956 l 3.77976,-3.52097 c 0.384,-0.358 0.55688,-0.88691 0.45287,-1.3989 -0.101,-0.515 -0.4622,-0.94042 -0.9532,-1.12142 l -4.83073,-1.79858 c -0.121,-0.418 -0.24812,-0.83382 -0.37812,-1.25082 l 3.01058,-4.17944 c 0.307,-0.425 0.36965,-0.97872 0.16965,-1.46072 -0.2,-0.483 -0.63717,-0.82939 -1.15017,-0.91439 l -5.08952,-0.82669 c -0.198,-0.386 -0.40447,-0.76611 -0.61247,-1.14011 l 2.14076,-4.69989 c 0.219,-0.478 0.17411,-1.03079 -0.11789,-1.47079 -0.291,-0.436 -0.78376,-0.69141 -1.30976,-0.67141 l -5.17003,0.18115 c -0.267,-0.334 -0.53968,-0.66559 -0.81662,-0.99059 l 1.19042,-5.03057 c 0.12,-0.511 -0.032,-1.04902 -0.404,-1.41902 -0.36899,-0.37001 -0.90402,-0.524 -1.41902,-0.404 l -5.03057,1.19043 c -0.326,-0.276 -0.65703,-0.5482 -0.99203,-0.81519 l 0.18115,-5.17003 c 0.02,-0.523 -0.2354,-1.0212 -0.67141,-1.3112 -0.437,-0.292 -0.98934,-0.33489 -1.46934,-0.11789 l -4.68983,2.13932 c -0.37901,-0.208 -0.75912,-0.41346 -1.14012,-0.61247 l -0.831,-5.090951 c -0.084,-0.516 -0.42895,-0.952736 -0.91295,-1.148736 -0.483,-0.201 -1.04072,-0.136349 -1.46072,0.169651 l -4.17944,3.009141 c -0.412,-0.131 -0.82675,-0.256682 -1.24075,-0.376681 l -1.80002,-4.829292 c -0.183,-0.492 -0.60698,-0.854082 -1.11998,-0.956082 -0.514,-0.101 -1.0389,0.07088 -1.3989,0.452881 l -3.52097,3.779758 c -0.425,-0.047 -0.85257,-0.09008 -1.27957,-0.125081 l -2.72016,-4.399414 c -0.275,-0.445 -0.76163,-0.715983 -1.28963,-0.715983 z m -0.0891,6.587619 a 45.769737,46.117138 0 0 1 45.76972,46.11621 45.769737,46.117138 0 0 1 -7.76367,25.56837 3.6805556,3.6805556 0 0 0 -0.74186,-0.0762 3.6805556,3.6805556 0 0 0 -3.68056,3.68056 3.6805556,3.6805556 0 0 0 0.38099,1.62318 45.769737,46.117138 0 0 1 -8.737,7.67454 3.6805556,3.6805556 0 0 0 -3.1486,-1.77702 3.6805556,3.6805556 0 0 0 -3.68056,3.68055 3.6805556,3.6805556 0 0 0 0.40256,1.6692 45.769737,46.117138 0 0 1 -18.80102,4.07448 45.769737,46.117138 0 0 1 -18.77083,-4.15931 3.6805556,3.6805556 0 0 0 0.36374,-1.58437 3.6805556,3.6805556 0 0 0 -3.68056,-3.68055 3.6805556,3.6805556 0 0 0 -3.06377,1.64619 45.769737,46.117138 0 0 1 -8.25681,-6.96144 3.6805556,3.6805556 0 0 0 0.74186,-2.20545 3.6805556,3.6805556 0 0 0 -3.68055,-3.68056 3.6805556,3.6805556 0 0 0 -1.47223,0.31343 45.769737,46.117138 0 0 1 -7.95057,-25.80559 45.769737,46.117138 0 0 1 45.76972,-46.11621 z M 149.57904,99.6006 a 2.9444444,2.9444444 0 0 1 2.94444,2.94445 2.9444444,2.9444444 0 0 1 -2.94444,2.94444 2.9444444,2.9444444 0 0 1 -2.94445,-2.94444 2.9444444,2.9444444 0 0 1 2.94445,-2.94445 z m 73.61111,0 a 2.9444444,2.9444444 0 0 1 2.94444,2.94445 2.9444444,2.9444444 0 0 1 -2.94444,2.94444 2.9444444,2.9444444 0 0 1 -2.94445,-2.94444 2.9444444,2.9444444 0 0 1 2.94445,-2.94445 z m -59.35184,11.20126 a 2.9444444,2.9444444 0 0 1 2.94445,2.94444 2.9444444,2.9444444 0 0 1 -2.94445,2.94445 2.9444444,2.9444444 0 0 1 -2.94444,-2.94445 2.9444444,2.9444444 0 0 1 2.94444,-2.94444 z m 44.16667,0 a 2.9444444,2.9444444 0 0 1 2.94444,2.94444 2.9444444,2.9444444 0 0 1 -2.94444,2.94445 2.9444444,2.9444444 0 0 1 -2.94445,-2.94445 2.9444444,2.9444444 0 0 1 2.94445,-2.94444 z" /><path
     id="path10290"
     style="clip-rule:evenodd;fill:url(#linearGradient11199);fill-opacity:1;fill-rule:nonzero;stroke-width:0.116063;stroke-linejoin:round;stroke-miterlimit:1.41421"
     d="M 226.33789 31.013672 C 225.76306 30.982291 225.2213 31.356076 224.93945 31.871094 L 221.94336 36.875 C 221.45672 36.917657 220.97297 36.957479 220.48633 37 L 216.59375 32.681641 C 216.22675 32.223381 215.63681 32.033281 215.07617 32.164062 C 214.51551 32.294885 214.06403 32.742074 213.86328 33.25 L 211.90039 38.814453 C 211.4208 38.938212 210.94212 39.062078 210.55078 39.259766 L 205.91211 35.742188 C 205.47819 35.453237 204.81621 35.349895 204.34375 35.554688 C 203.7973 35.84766 203.42699 36.287204 203.31445 36.869141 L 202.35742 42.753906 C 201.96608 42.951607 201.58183 43.232708 201.10938 43.4375 L 195.99414 41.023438 C 195.47912 40.741578 194.82935 40.799019 194.37109 41.166016 C 193.90576 41.451896 193.63301 42.048215 193.60156 42.623047 L 193.79297 48.572266 C 193.48984 48.843964 193.11473 49.203619 192.73047 49.482422 L 187.21875 48.166016 C 186.62971 47.972363 186.07811 48.184633 185.62695 48.632812 C 185.2498 48.992704 185.06259 49.662007 185.19336 50.222656 L 186.51367 55.992188 C 186.21764 56.344988 185.92176 56.698897 185.63281 57.132812 L 179.89453 56.898438 C 179.31969 56.867056 178.77209 57.160764 178.49023 57.675781 C 178.20839 58.190799 178.1035 58.853938 178.39648 59.400391 L 180.74414 64.751953 C 180.45519 65.185869 180.24691 65.612252 180.03906 66.039062 L 174.48828 67.013672 C 173.83943 67.070321 173.38434 67.521371 173.18359 68.029297 C 172.98994 68.618325 173.04612 69.265118 173.33203 69.730469 L 176.69336 74.503906 C 176.61932 74.592208 176.62588 74.672804 176.63281 74.753906 L 167.20898 84.732422 C 167.20898 84.732422 165.83644 85.833014 167.86914 88.515625 L 185.20312 104.60352 L 181.04492 108.23242 C 180.06027 107.60567 178.85279 107.25586 177.49414 107.25586 C 176.78744 107.25586 176.10612 107.36495 175.4668 107.56836 L 175.82812 108.15625 C 176.35703 108.00406 176.91628 107.92381 177.49414 107.92383 C 180.81429 107.92383 183.09767 110.20524 183.09766 113.52539 C 183.09766 114.6337 182.79654 115.67297 182.27344 116.56445 L 182.75391 117.06055 C 183.3942 116.03552 183.76563 114.82302 183.76562 113.52539 C 183.76562 111.94085 183.287 110.56308 182.45117 109.50391 L 186.98633 105.71484 C 187.16865 105.36992 187.47077 105.13611 186.78516 103.98828 L 173.05859 88.181641 C 173.05859 88.181641 176.5975 85.703755 177.16602 85.220703 C 177.25608 85.692697 177.46753 86.275757 177.92969 86.994141 L 203.83789 112.41797 L 200.19922 123.55859 C 198.70761 122.5486 196.78223 122.27813 194.76953 122.92773 C 194.097 123.14481 193.48345 123.45776 192.9375 123.84766 L 193.46094 124.29688 C 193.91753 123.98958 194.42469 123.73997 194.97461 123.5625 C 198.13427 122.54267 201.00754 124.01416 202.02734 127.17383 C 202.36777 128.22855 202.40172 129.3093 202.17773 130.31836 L 202.78711 130.64258 C 203.0816 129.47046 203.06266 128.20366 202.66406 126.96875 C 202.33255 125.94161 201.81739 125.07391 201.16992 124.38672 L 201.22656 124.4082 L 206.24805 114.0625 C 206.66543 113.21522 206.59708 112.60854 206.16797 112.17969 L 183.58594 87.533203 C 185.80407 88.937108 188.63708 90.217938 191.92578 91.363281 C 192.8032 94.721905 195.39922 101.08458 206.10547 106.01172 C 214.06169 114.6476 221.13833 116.36048 227.24609 110.47656 C 223.42541 110.27934 219.37662 110.05548 214.16406 104.04297 C 217.90615 103.43206 222.28575 101.89323 227.12305 103.58398 C 224.79305 98.343661 214.4472 89.887896 207.83008 101.73828 L 205.37891 101.15625 C 202.15132 98.690454 198.8734 95.8527 196.80273 92.791016 C 205.14774 94.831727 215.70857 96.054688 227.20117 96.054688 C 239.13489 96.054688 250.02314 94.724613 258.50781 92.541016 C 256.4492 95.69808 253.08658 98.623602 249.77148 101.15625 L 247.31836 101.73828 C 240.70123 89.88791 230.35345 98.343661 228.02344 103.58398 C 232.86074 101.89323 237.2423 103.43204 240.98438 104.04297 C 235.77182 110.05548 231.72303 110.27932 227.90234 110.47656 C 234.0101 116.36047 241.08676 114.6476 249.04297 106.01172 C 260.00519 100.96679 262.46151 94.425869 263.2793 91.136719 C 263.6489 91.012145 264.05419 90.899862 264.41016 90.771484 C 267.57233 89.437691 270.13791 87.948301 271.97266 86.345703 L 250.44336 112.98828 C 249.42633 113.70548 249.47111 114.81885 250.37891 116.25195 L 253.30078 123.57227 C 252.20058 124.32439 251.33788 125.48016 250.85742 126.96875 C 250.45887 128.20366 250.43991 129.47045 250.73438 130.64258 L 251.34375 130.31836 C 251.11976 129.3093 251.15372 128.22855 251.49414 127.17383 C 252.51395 124.01416 255.38723 122.54267 258.54688 123.5625 C 259.09681 123.73997 259.60397 123.98958 260.06055 124.29688 L 260.58398 123.84766 C 260.03803 123.45776 259.42447 123.14481 258.75195 122.92773 C 256.98645 122.35792 255.28824 122.49664 253.89062 123.2207 L 252.2207 114.17578 L 276.31836 87.53125 C 276.94922 86.376207 277.06431 85.54779 277.0332 85.013672 C 277.72829 85.401073 281.76367 87.826172 281.76367 87.826172 L 270.41797 106.21484 C 270.19436 106.9075 270.22089 107.33471 270.41797 107.58008 L 272.49609 109.625 C 271.62904 110.69218 271.13281 112.09482 271.13281 113.71094 C 271.13283 115.00857 271.23862 115.50623 271.87891 116.53125 L 272.35938 116.03516 C 271.8363 115.14367 271.80078 114.81925 271.80078 113.71094 C 271.80077 110.3908 274.08415 108.10938 277.4043 108.10938 C 277.98216 108.10938 277.92814 108.08806 278.45703 108.24023 L 278.81836 107.65234 C 278.17904 107.44951 278.111 107.44141 277.4043 107.44141 C 275.63284 107.44141 274.11713 108.03703 273.01953 109.06445 L 271.41406 106.82617 L 286.28125 86.574219 C 287.83142 83.741589 286.28906 82.894531 286.28906 82.894531 L 276.24414 75.521484 C 276.13465 75.204155 276.02572 74.885992 275.99023 74.480469 L 279.25 69.701172 C 279.62005 69.260165 279.64351 68.604339 279.43164 68.050781 C 279.21977 67.497237 278.77922 67.124256 278.19727 67.011719 L 272.55273 66.035156 C 272.35503 65.643816 272.15081 65.170637 271.95312 64.779297 L 274.25586 59.349609 C 274.53771 58.834592 274.48344 58.185846 274.10938 57.646484 C 273.82348 57.181147 273.30797 56.897586 272.74023 56.947266 L 267.0332 57.121094 C 266.75441 56.736845 266.39404 56.356892 266.11523 55.972656 L 267.41016 50.220703 C 267.52264 49.638767 267.38352 48.998265 267.02344 48.621094 C 266.57533 48.169939 265.98837 47.974687 265.42773 48.105469 L 259.91016 49.488281 C 259.55736 49.192239 259.20561 48.894736 258.8457 48.517578 L 258.98047 42.623047 C 259.01185 42.048215 258.71832 41.502865 258.27734 41.132812 C 257.75524 40.769851 257.18123 40.736325 256.63477 41.029297 L 251.53516 43.4375 C 251.10845 43.229665 250.67487 42.940257 250.24805 42.732422 L 249.33008 36.929688 C 249.27329 36.280832 248.82629 35.82965 248.31836 35.628906 C 247.80334 35.347047 247.15162 35.404502 246.69336 35.771484 L 242.09375 39.195312 C 241.67402 39.068565 241.25279 38.943861 240.75195 38.824219 L 238.79688 33.275391 C 238.58499 32.721846 238.13467 32.268801 237.55273 32.15625 C 236.9708 32.043767 236.41601 32.25896 235.96484 32.707031 L 232.09766 37.048828 C 231.68465 37.003183 231.1832 36.884244 230.68945 36.845703 L 227.71875 31.873047 C 227.42575 31.326594 226.91274 31.045107 226.33789 31.013672 z M 216.31445 70.423828 C 219.54388 70.423434 222.16065 74.326393 222.16016 79.140625 C 222.15976 83.95392 219.54326 87.855876 216.31445 87.855469 C 213.08657 87.85411 210.46914 83.952534 210.46875 79.140625 C 210.46826 74.327778 213.08595 70.42539 216.31445 70.423828 z M 240.18945 70.84375 C 243.41826 70.843356 246.03672 74.745299 246.03711 79.558594 C 246.03672 84.371889 243.41826 88.271878 240.18945 88.271484 C 236.96157 88.270126 234.3461 84.370503 234.3457 79.558594 C 234.3461 74.746684 236.96157 70.845312 240.18945 70.84375 z "
     transform="matrix(0.73611111,0,0,0.73611111,19,19)" /><path
     d="m 199.50003,40.381771 c 0.0203,0.346199 -0.47119,0.255235 -0.47119,0.604608 0,10.164826 -12.27605,25.672713 -24.17557,28.669074 v 0.432169 C 190.6612,68.632143 208.75095,52.210645 209.1491,36.64079 l -9.65013,3.741256 z"
     style="fill:url(#SVGID_right_-6);stroke-width:0.263673"
     id="path16" /><path
     d="m 194.71912,41.632368 c 0.0201,0.346216 0.0315,0.693461 0.0315,1.043365 0,10.164826 -8.09445,23.861531 -19.99346,26.857635 v 0.432168 c 15.56827,-0.735648 27.89916,-16.617681 27.89916,-28.79301 0,-0.626225 -0.0338,-1.246908 -0.0978,-1.860471 l -7.83898,2.319798 z"
     style="fill:#e96d1f;stroke-width:0.263673"
     id="path18" /><path
     d="m 202.63404,39.167306 -2.0084,0.71772 c 0.0108,0.25364 0.0174,0.594313 0.0174,0.850338 0,10.868306 -9.82733,25.89367 -23.01119,28.244556 -0.85563,0.286889 -1.98757,0.547649 -2.88248,0.772826 v 0.431895 c 17.20566,-1.466012 29.29398,-18.94906 27.88597,-31.018398 z"
     style="fill:#d9541e;stroke-width:0.263673"
     id="path20" /><path
     d="m 172.65974,40.381515 c -0.0203,0.346198 0.47119,0.255235 0.47119,0.604607 0,10.164826 12.27605,25.672695 24.17558,28.669073 v 0.432152 C 181.49857,68.631887 163.4088,52.210371 163.01067,36.640532 l 9.65014,3.741239 z"
     style="fill:url(#SVGID_left_);stroke-width:0.263673"
     id="path22" /><path
     d="m 177.44066,41.632111 c -0.0201,0.346199 -0.0315,0.69346 -0.0315,1.043347 0,10.164827 8.09447,23.86155 19.99346,26.857653 v 0.432152 c -15.56826,-0.735631 -27.89914,-16.617665 -27.89914,-28.792994 0,-0.626225 0.0338,-1.246909 0.0978,-1.860472 l 7.83896,2.319782 z"
     style="fill:#a0ce67;stroke-width:0.263673"
     id="path24" /><path
     d="m 169.52573,39.167048 2.0084,0.717703 c -0.0108,0.253657 -0.0174,0.594314 -0.0174,0.850339 0,10.868305 9.82733,25.89367 23.01119,28.244573 0.85562,0.286871 1.98757,0.547648 2.88247,0.772826 v 0.431894 C 180.20474,68.718372 168.11643,51.235306 169.52444,39.165985 Z"
     style="fill:#439639;stroke-width:0.263673"
     id="path26" /><ellipse
     style="fill:#ffffff;stroke:none;stroke-width:6.40417;stroke-linecap:round;stroke-linejoin:round"
     id="path11508"
     cx="176.50238"
     cy="75.385139"
     rx="2.2604382"
     ry="3.2844894" /><ellipse
     style="fill:#ffffff;stroke:none;stroke-width:6.40417;stroke-linecap:round;stroke-linejoin:round"
     id="ellipse11510"
     cx="193.72012"
     cy="75.482712"
     rx="2.2604382"
     ry="3.2844894" /></svg>
