<?xml version="1.0" encoding="UTF-8" standalone="no"?>
<!-- Created with Inkscape (http://www.inkscape.org/) -->

<svg
   width="37.611145mm"
   height="37.614769mm"
   viewBox="0 0 37.611145 37.614769"
   version="1.1"
   id="svg210"
   inkscape:version="1.1.2 (0a00cf5339, 2022-02-04)"
   sodipodi:docname="xmpp_proxy_color.svg"
   xmlns:inkscape="http://www.inkscape.org/namespaces/inkscape"
   xmlns:sodipodi="http://sodipodi.sourceforge.net/DTD/sodipodi-0.dtd"
   xmlns:xlink="http://www.w3.org/1999/xlink"
   xmlns="http://www.w3.org/2000/svg"
   xmlns:svg="http://www.w3.org/2000/svg">
  <sodipodi:namedview
     id="namedview212"
     pagecolor="#ffffff"
     bordercolor="#666666"
     borderopacity="1.0"
     inkscape:pageshadow="2"
     inkscape:pageopacity="0.0"
     inkscape:pagecheckerboard="0"
     inkscape:document-units="mm"
     showgrid="false"
     fit-margin-top="0"
     fit-margin-left="0"
     fit-margin-right="0"
     fit-margin-bottom="0"
     inkscape:zoom="0.5550014"
     inkscape:cx="-171.17074"
     inkscape:cy="231.53095"
     inkscape:window-width="1600"
     inkscape:window-height="873"
     inkscape:window-x="0"
     inkscape:window-y="27"
     inkscape:window-maximized="1"
     inkscape:current-layer="layer1" />
  <defs
     id="defs207">
    <linearGradient
       inkscape:collect="always"
       xlink:href="#_Linear1"
       id="linearGradient11598"
       x1="165.16576"
       y1="26.118017"
       x2="228.40903"
       y2="126.80087"
       gradientUnits="userSpaceOnUse" />
    <linearGradient
       id="_Linear1"
       x1="0"
       y1="0"
       x2="1"
       y2="0"
       gradientUnits="userSpaceOnUse"
       gradientTransform="matrix(-4.9785904,-56.90545,56.90545,-4.9785904,74.01045,105.29409)">
      <stop
         offset="0"
         style="stop-color:rgb(247,76,0);stop-opacity:1"
         id="stop51" />
      <stop
         offset="0.33"
         style="stop-color:rgb(247,76,0);stop-opacity:1"
         id="stop53" />
      <stop
         offset="1"
         style="stop-color:rgb(244,150,0);stop-opacity:1"
         id="stop55" />
    </linearGradient>
    <linearGradient
       inkscape:collect="always"
       xlink:href="#_Linear1"
       id="linearGradient11199"
       x1="211.15358"
       y1="111.84278"
       x2="177.44066"
       y2="41.632111"
       gradientUnits="userSpaceOnUse"
       gradientTransform="matrix(1.3584906,0,0,1.3584906,-25.811321,-25.811321)" />
    <linearGradient
       id="SVGID_right_-6"
       y2="1.279e-13"
       gradientUnits="userSpaceOnUse"
       x2="-1073.2"
       gradientTransform="matrix(0.26367216,0,0,0.26367216,474.98437,36.640517)"
       y1="126.85"
       x1="-1073.2">
      <stop
         stop-color="#1b3967"
         offset=".011"
         id="stop2-7" />
      <stop
         stop-color="#13b5ea"
         offset=".467"
         id="stop4-5" />
      <stop
         stop-color="#002b5c"
         offset=".9945"
         id="stop6-3" />
    </linearGradient>
    <linearGradient
       id="SVGID_left_"
       y2="1.279e-13"
       gradientUnits="userSpaceOnUse"
       x2="-1073.2"
       gradientTransform="matrix(-0.26367216,0,0,0.26367216,-102.82466,36.64026)"
       y1="126.85"
       x1="-1073.2">
      <stop
         stop-color="#1b3967"
         offset=".011"
         id="stop9" />
      <stop
         stop-color="#13b5ea"
         offset=".467"
         id="stop11" />
      <stop
         stop-color="#002b5c"
         offset=".9945"
         id="stop13" />
    </linearGradient>
  </defs>
  <g
     inkscape:label="Layer 1"
     inkscape:groupmode="layer"
     id="layer1"
     transform="translate(-84.643866,-87.025682)">
    <g
       id="g163"
       transform="matrix(0.35943397,0,0,0.35943397,36.58414,79.596731)">
      <ellipse
         style="fill:#000000;stroke:none;stroke-width:6.40417;stroke-linecap:round;stroke-linejoin:round"
         id="path11280"
         cx="186.03355"
         cy="78.00135"
         rx="34.505463"
         ry="10.389123" />
      <path
         id="path10288"
         style="fill:url(#linearGradient11598);fill-opacity:1;stroke-width:1"
         d="m 186.01506,20.668501 c -0.528,0 -1.00957,0.270983 -1.27957,0.715983 l -2.72016,4.399414 c -0.428,0.035 -0.85701,0.07808 -1.28101,0.125081 l -3.51953,-3.779758 c -0.357,-0.382 -0.88733,-0.553881 -1.40033,-0.452881 -0.51501,0.103 -0.93899,0.464082 -1.11999,0.956082 l -1.80002,4.829292 c -0.418,0.119999 -0.83131,0.246682 -1.23931,0.376681 l -4.18088,-3.009141 c -0.425,-0.307 -0.97828,-0.371651 -1.45928,-0.169651 -0.483,0.2 -0.83039,0.636736 -0.91439,1.148736 l -0.82956,5.090951 c -0.384,0.19901 -0.76411,0.40347 -1.14011,0.61247 l -4.68984,-2.13932 c -0.477,-0.218 -1.03078,-0.17411 -1.47078,0.11789 -0.436,0.29 -0.68998,0.7882 -0.66998,1.3112 l 0.17972,5.17003 c -0.334,0.26699 -0.66503,0.53919 -0.99203,0.81519 l -5.03057,-1.19043 c -0.511,-0.119 -1.04903,0.034 -1.41903,0.404 -0.372,0.371 -0.52399,0.90502 -0.40399,1.41902 l 1.18036,5.03057 c -0.275,0.326 -0.54675,0.65659 -0.81375,0.99059 L 143.831,43.25935 c -0.521,-0.015 -1.01976,0.23541 -1.30976,0.67141 -0.292,0.434 -0.33633,0.99079 -0.11933,1.47079 l 2.13932,4.69989 c -0.208,0.377 -0.41346,0.75711 -0.61246,1.14011 l -5.08952,0.82669 c -0.517,0.084 -0.95317,0.43039 -1.15017,0.91439 -0.2,0.485 -0.13535,1.04072 0.16965,1.46072 l 3.01058,4.17944 c -0.131,0.413 -0.25812,0.82882 -0.37812,1.25082 l -4.83073,1.79858 c -0.49,0.183 -0.85121,0.60842 -0.95321,1.12142 -0.102,0.51399 0.0699,1.0389 0.45288,1.3989 l 3.77976,3.52097 c -0.047,0.425 -0.0891,0.85257 -0.12508,1.27956 l -4.38935,2.72017 c -0.445,0.275 -0.71599,0.76063 -0.71599,1.28963 0,0.529 0.27099,1.00957 0.71599,1.27957 l 4.38935,2.72016 c 0.036,0.428 0.0781,0.856 0.12508,1.281 l -3.77976,3.51953 c -0.383,0.357 -0.55488,0.88734 -0.45288,1.40034 0.102,0.515 0.46321,0.93798 0.95321,1.11998 l 4.83073,1.80002 c 0.12,0.418 0.24712,0.83239 0.37812,1.24938 l -3.01058,4.17944 c -0.306,0.426 -0.37065,0.97972 -0.16965,1.46072 0.201,0.48501 0.63823,0.83139 1.16023,0.91439 l 5.08952,0.82813 c 0.199,0.386 0.40247,0.76611 0.61247,1.14011 l -2.13932,4.68983 c -0.218,0.477 -0.17267,1.02941 0.11933,1.46934 0.292,0.43701 0.78876,0.69242 1.30976,0.67142 l 2.06456,-0.0719 a 3.6805556,3.6805556 0 0 0 3.28662,3.54685 l -0.55496,2.36504 c -0.12,0.51 0.0306,1.0404 0.40256,1.4104 0.369,0.373 0.90647,0.52256 1.42047,0.40256 l 5.02913,-1.18037 c 0.327,0.278 0.65802,0.54775 0.99202,0.81375 l -0.17971,5.17003 c -0.02,0.523 0.23541,1.01976 0.67141,1.30977 0.434,0.29099 0.98936,0.33588 1.46935,0.11788 l 2.22127,-1.01358 a 3.6805556,3.6805556 0 0 0 3.17448,1.83021 3.6805556,3.6805556 0 0 0 0.80225,-0.092 l 0.46294,2.83805 c 0.084,0.51799 0.42895,0.95624 0.91295,1.16024 0.483,0.20099 1.04072,0.13535 1.46072,-0.16965 l 4.17945,-3.00915 c 0.413,0.131 0.82881,0.25812 1.25081,0.37812 l 1.80002,4.83073 c 0.183,0.49 0.60698,0.85321 1.11998,0.95321 0.514,0.104 1.0389,-0.0689 1.3989,-0.45288 l 3.52097,-3.77976 c 0.425,0.049 0.85257,0.09 1.27957,0.12796 l 2.72016,4.39078 c 0.274,0.44301 0.76057,0.71599 1.27957,0.71599 0.519,0 1.00963,-0.27199 1.28963,-0.71599 l 2.72016,-4.39078 c 0.428,-0.038 0.85601,-0.079 1.28101,-0.12796 l 3.51953,3.77976 c 0.357,0.384 0.88734,0.55688 1.40033,0.45288 0.51501,-0.10101 0.93899,-0.46321 1.11999,-0.95321 l 1.80002,-4.83073 c 0.418,-0.12 0.83237,-0.24712 1.24937,-0.37812 l 4.18089,3.00915 c 0.425,0.305 0.97828,0.37064 1.45928,0.16965 0.484,-0.199 0.83039,-0.63824 0.91439,-1.16024 l 0.45575,-2.7978 a 3.6805556,3.6805556 0 0 0 0.58803,0.0518 3.6805556,3.6805556 0 0 0 3.22336,-1.90929 l 2.39236,1.09266 c 0.477,0.218 1.03079,0.17311 1.47078,-0.11788 0.43601,-0.29201 0.68898,-0.78677 0.66998,-1.30977 l -0.17971,-5.17003 c 0.334,-0.267 0.66458,-0.53575 0.99058,-0.81375 l 5.03058,1.18037 c 0.511,0.12 1.05046,-0.0296 1.42046,-0.40256 0.372,-0.371 0.52256,-0.9044 0.40256,-1.4104 l -0.55352,-2.36073 a 3.6805556,3.6805556 0 0 0 0.31774,0.0201 3.6805556,3.6805556 0 0 0 3.67193,-3.54684 l 1.36726,0.0474 c 0.521,0.021 1.0212,-0.23441 1.3112,-0.67142 0.292,-0.43594 0.3369,-0.99034 0.1179,-1.46934 l -2.14077,-4.68983 c 0.20901,-0.379 0.41447,-0.75911 0.61247,-1.14011 l 5.08952,-0.82813 c 0.518,-0.083 0.95417,-0.42938 1.15018,-0.91439 0.19999,-0.483 0.13734,-1.04072 -0.16966,-1.46072 l -3.01058,-4.17944 c 0.13,-0.41299 0.25712,-0.82738 0.37813,-1.24938 l 4.83073,-1.80002 c 0.491,-0.184 0.85176,-0.60698 0.95176,-1.11998 0.10394,-0.514 -0.0675,-1.04034 -0.45144,-1.40034 l -3.77976,-3.51953 c 0.046,-0.425 0.0881,-0.854 0.12508,-1.281 l 4.38935,-2.72016 c 0.445,-0.274 0.71599,-0.76057 0.71599,-1.27957 0,-0.519 -0.26955,-1.00963 -0.71455,-1.28963 h -0.0316 l -4.38935,-2.72017 c -0.037,-0.42799 -0.0791,-0.85456 -0.12508,-1.27956 l 3.77976,-3.52097 c 0.384,-0.358 0.55688,-0.88691 0.45287,-1.3989 -0.101,-0.515 -0.4622,-0.94042 -0.9532,-1.12142 l -4.83073,-1.79858 c -0.121,-0.418 -0.24812,-0.83382 -0.37812,-1.25082 l 3.01058,-4.17944 c 0.307,-0.425 0.36965,-0.97872 0.16965,-1.46072 -0.2,-0.483 -0.63717,-0.82939 -1.15017,-0.91439 l -5.08952,-0.82669 c -0.198,-0.386 -0.40447,-0.76611 -0.61247,-1.14011 l 2.14076,-4.69989 c 0.219,-0.478 0.17411,-1.03079 -0.11789,-1.47079 -0.291,-0.436 -0.78376,-0.69141 -1.30976,-0.67141 l -5.17003,0.18115 c -0.267,-0.334 -0.53968,-0.66559 -0.81662,-0.99059 l 1.19042,-5.03057 c 0.12,-0.511 -0.032,-1.04902 -0.404,-1.41902 -0.36899,-0.37001 -0.90402,-0.524 -1.41902,-0.404 l -5.03057,1.19043 c -0.326,-0.276 -0.65703,-0.5482 -0.99203,-0.81519 l 0.18115,-5.17003 c 0.02,-0.523 -0.2354,-1.0212 -0.67141,-1.3112 -0.437,-0.292 -0.98934,-0.33489 -1.46934,-0.11789 l -4.68983,2.13932 c -0.37901,-0.208 -0.75912,-0.41346 -1.14012,-0.61247 l -0.831,-5.090951 c -0.084,-0.516 -0.42895,-0.952736 -0.91295,-1.148736 -0.483,-0.201 -1.04072,-0.136349 -1.46072,0.169651 l -4.17944,3.009141 c -0.412,-0.131 -0.82675,-0.256682 -1.24075,-0.376681 l -1.80002,-4.829292 c -0.183,-0.492 -0.60698,-0.854082 -1.11998,-0.956082 -0.514,-0.101 -1.0389,0.07088 -1.3989,0.452881 l -3.52097,3.779758 c -0.425,-0.047 -0.85257,-0.09008 -1.27957,-0.125081 l -2.72016,-4.399414 c -0.275,-0.445 -0.76163,-0.715983 -1.28963,-0.715983 z m -0.0891,6.587619 a 45.769737,46.117138 0 0 1 45.76972,46.11621 45.769737,46.117138 0 0 1 -7.76367,25.56837 3.6805556,3.6805556 0 0 0 -0.74186,-0.0762 3.6805556,3.6805556 0 0 0 -3.68056,3.68056 3.6805556,3.6805556 0 0 0 0.38099,1.62318 45.769737,46.117138 0 0 1 -8.737,7.67454 3.6805556,3.6805556 0 0 0 -3.1486,-1.77702 3.6805556,3.6805556 0 0 0 -3.68056,3.68055 3.6805556,3.6805556 0 0 0 0.40256,1.6692 45.769737,46.117138 0 0 1 -18.80102,4.07448 45.769737,46.117138 0 0 1 -18.77083,-4.15931 3.6805556,3.6805556 0 0 0 0.36374,-1.58437 3.6805556,3.6805556 0 0 0 -3.68056,-3.68055 3.6805556,3.6805556 0 0 0 -3.06377,1.64619 45.769737,46.117138 0 0 1 -8.25681,-6.96144 3.6805556,3.6805556 0 0 0 0.74186,-2.20545 3.6805556,3.6805556 0 0 0 -3.68055,-3.68056 3.6805556,3.6805556 0 0 0 -1.47223,0.31343 45.769737,46.117138 0 0 1 -7.95057,-25.80559 45.769737,46.117138 0 0 1 45.76972,-46.11621 z M 149.57904,99.6006 a 2.9444444,2.9444444 0 0 1 2.94444,2.94445 2.9444444,2.9444444 0 0 1 -2.94444,2.94444 2.9444444,2.9444444 0 0 1 -2.94445,-2.94444 2.9444444,2.9444444 0 0 1 2.94445,-2.94445 z m 73.61111,0 a 2.9444444,2.9444444 0 0 1 2.94444,2.94445 2.9444444,2.9444444 0 0 1 -2.94444,2.94444 2.9444444,2.9444444 0 0 1 -2.94445,-2.94444 2.9444444,2.9444444 0 0 1 2.94445,-2.94445 z m -59.35184,11.20126 a 2.9444444,2.9444444 0 0 1 2.94445,2.94444 2.9444444,2.9444444 0 0 1 -2.94445,2.94445 2.9444444,2.9444444 0 0 1 -2.94444,-2.94445 2.9444444,2.9444444 0 0 1 2.94444,-2.94444 z m 44.16667,0 a 2.9444444,2.9444444 0 0 1 2.94444,2.94444 2.9444444,2.9444444 0 0 1 -2.94444,2.94445 2.9444444,2.9444444 0 0 1 -2.94445,-2.94445 2.9444444,2.9444444 0 0 1 2.94445,-2.94444 z" />
      <path
         id="path10290"
         style="clip-rule:evenodd;fill:url(#linearGradient11199);fill-opacity:1;fill-rule:nonzero;stroke-width:0.116063;stroke-linejoin:round;stroke-miterlimit:1.41421"
         d="m 226.33789,31.013672 c -0.57483,-0.03138 -1.11659,0.342404 -1.39844,0.857422 L 221.94336,36.875 c -0.48664,0.04266 -0.97039,0.08248 -1.45703,0.125 l -3.89258,-4.318359 c -0.367,-0.45826 -0.95694,-0.64836 -1.51758,-0.517579 -0.56066,0.130823 -1.01214,0.578012 -1.21289,1.085938 l -1.96289,5.564453 c -0.47959,0.123759 -0.95827,0.247625 -1.34961,0.445313 l -4.63867,-3.517578 c -0.43392,-0.288951 -1.0959,-0.392293 -1.56836,-0.1875 -0.54645,0.292972 -0.91676,0.732516 -1.0293,1.314453 l -0.95703,5.884765 c -0.39134,0.197701 -0.77559,0.478802 -1.24804,0.683594 l -5.11524,-2.414062 c -0.51502,-0.28186 -1.16479,-0.224419 -1.62305,0.142578 -0.46533,0.28588 -0.73808,0.882199 -0.76953,1.457031 l 0.19141,5.949219 c -0.30313,0.271698 -0.67824,0.631353 -1.0625,0.910156 l -5.51172,-1.316406 c -0.58904,-0.193653 -1.14064,0.01862 -1.5918,0.466796 -0.37715,0.359892 -0.56436,1.029195 -0.43359,1.589844 l 1.32031,5.769532 c -0.29603,0.3528 -0.59191,0.706709 -0.88086,1.140624 l -5.73828,-0.234374 c -0.57484,-0.03138 -1.12244,0.262326 -1.4043,0.777343 -0.28184,0.515018 -0.38673,1.178157 -0.0937,1.72461 l 2.34766,5.351562 c -0.28895,0.433916 -0.49723,0.860299 -0.70508,1.287109 l -5.55078,0.97461 c -0.64885,0.05665 -1.10394,0.507699 -1.30469,1.015625 -0.19365,0.589028 -0.13747,1.235821 0.14844,1.701172 l 3.36133,4.773437 c -0.074,0.0883 -0.0675,0.168898 -0.0606,0.25 l -9.42383,9.978516 c 0,0 -1.37254,1.100592 0.66016,3.783203 l 17.33398,16.087895 -4.1582,3.6289 c -0.98465,-0.62675 -2.19213,-0.97656 -3.55078,-0.97656 -0.7067,0 -1.38802,0.10909 -2.02734,0.3125 l 0.36132,0.58789 c 0.52891,-0.15219 1.08816,-0.23244 1.66602,-0.23242 3.32015,0 5.60353,2.28141 5.60352,5.60156 0,1.10831 -0.30112,2.14758 -0.82422,3.03906 l 0.48047,0.4961 c 0.64029,-1.02503 1.01172,-2.23753 1.01171,-3.53516 0,-1.58454 -0.47862,-2.96231 -1.31445,-4.02148 l 4.53516,-3.78907 c 0.18232,-0.34492 0.48444,-0.57873 -0.20117,-1.72656 L 173.05859,88.181641 c 0,0 3.53891,-2.477886 4.10743,-2.960938 0.0901,0.471994 0.30151,1.055054 0.76367,1.773438 l 25.9082,25.423829 -3.63867,11.14062 c -1.49161,-1.00999 -3.41699,-1.28046 -5.42969,-0.63086 -0.67253,0.21708 -1.28608,0.53003 -1.83203,0.91993 l 0.52344,0.44922 c 0.45659,-0.3073 0.96375,-0.55691 1.51367,-0.73438 3.15966,-1.01983 6.03293,0.45166 7.05273,3.61133 0.34043,1.05472 0.37438,2.13547 0.15039,3.14453 l 0.60938,0.32422 c 0.29449,-1.17212 0.27555,-2.43892 -0.12305,-3.67383 -0.33151,-1.02714 -0.84667,-1.89484 -1.49414,-2.58203 l 0.0566,0.0215 5.02149,-10.3457 c 0.41738,-0.84728 0.34903,-1.45396 -0.0801,-1.88281 L 183.58594,87.533203 c 2.21813,1.403905 5.05114,2.684735 8.33984,3.830078 0.87742,3.358624 3.47344,9.721299 14.17969,14.648439 7.95622,8.63588 15.03286,10.34876 21.14062,4.46484 -3.82068,-0.19722 -7.86947,-0.42108 -13.08203,-6.43359 3.74209,-0.61091 8.12169,-2.14974 12.95899,-0.45899 -2.33,-5.240319 -12.67585,-13.696084 -19.29297,-1.8457 l -2.45117,-0.58203 c -3.22759,-2.465796 -6.50551,-5.30355 -8.57618,-8.365234 8.34501,2.040711 18.90584,3.263672 30.39844,3.263672 11.93372,0 22.82197,-1.330075 31.30664,-3.513672 -2.05861,3.157064 -5.42123,6.082586 -8.73633,8.615234 l -2.45312,0.58203 c -6.61713,-11.85037 -16.96491,-3.394619 -19.29492,1.8457 4.8373,-1.69075 9.21886,-0.15194 12.96094,0.45899 -5.21256,6.01251 -9.26135,6.23635 -13.08204,6.43359 6.10776,5.88391 13.18442,4.17104 21.14063,-4.46484 10.96222,-5.04493 13.41854,-11.585851 14.23633,-14.875001 0.3696,-0.124574 0.77489,-0.236857 1.13086,-0.365235 3.16217,-1.333793 5.72775,-2.823183 7.5625,-4.425781 l -21.5293,26.642577 c -1.01703,0.7172 -0.97225,1.83057 -0.0645,3.26367 l 2.92187,7.32032 c -1.1002,0.75212 -1.9629,1.90789 -2.44336,3.39648 -0.39855,1.23491 -0.41751,2.5017 -0.12304,3.67383 l 0.60937,-0.32422 c -0.22399,-1.00906 -0.19003,-2.08981 0.15039,-3.14453 1.01981,-3.15967 3.89309,-4.63116 7.05274,-3.61133 0.54993,0.17747 1.05709,0.42708 1.51367,0.73438 l 0.52343,-0.44922 c -0.54595,-0.3899 -1.15951,-0.70285 -1.83203,-0.91993 -1.7655,-0.56981 -3.46371,-0.43109 -4.86133,0.29297 l -1.66992,-9.04492 24.09766,-26.64453 c 0.63086,-1.155043 0.74595,-1.98346 0.71484,-2.517578 0.69509,0.387401 4.73047,2.8125 4.73047,2.8125 l -11.3457,18.388668 c -0.22361,0.69266 -0.19708,1.11987 0,1.36524 l 2.07812,2.04492 c -0.86705,1.06718 -1.36328,2.46982 -1.36328,4.08594 2e-5,1.29763 0.10581,1.79529 0.7461,2.82031 l 0.48047,-0.49609 c -0.52308,-0.89149 -0.5586,-1.21591 -0.5586,-2.32422 -10e-6,-3.32014 2.28337,-5.60156 5.60352,-5.60156 0.57786,0 0.52384,-0.0213 1.05273,0.13085 l 0.36133,-0.58789 c -0.63932,-0.20283 -0.70736,-0.21093 -1.41406,-0.21093 -1.77146,0 -3.28717,0.59562 -4.38477,1.62304 l -1.60547,-2.23828 14.86719,-20.251951 c 1.55017,-2.83263 0.008,-3.679688 0.008,-3.679688 l -10.04492,-7.373047 c -0.10949,-0.317329 -0.21842,-0.635492 -0.25391,-1.041015 L 279.25,69.701172 c 0.37005,-0.441007 0.39351,-1.096833 0.18164,-1.650391 -0.21187,-0.553544 -0.65242,-0.926525 -1.23437,-1.039062 l -5.64454,-0.976563 c -0.1977,-0.39134 -0.40192,-0.864519 -0.59961,-1.255859 l 2.30274,-5.429688 c 0.28185,-0.515017 0.22758,-1.163763 -0.14648,-1.703125 -0.2859,-0.465337 -0.80141,-0.748898 -1.36915,-0.699218 l -5.70703,0.173828 c -0.27879,-0.384249 -0.63916,-0.764202 -0.91797,-1.148438 l 1.29493,-5.751953 c 0.11248,-0.581936 -0.0266,-1.222438 -0.38672,-1.599609 -0.44811,-0.451155 -1.03507,-0.646407 -1.59571,-0.515625 l -5.51757,1.382812 c -0.3528,-0.296042 -0.70455,-0.593545 -1.06446,-0.970703 l 0.13477,-5.894531 c 0.0314,-0.574832 -0.26215,-1.120182 -0.70313,-1.490235 -0.5221,-0.362961 -1.09611,-0.396487 -1.64257,-0.103515 l -5.09961,2.408203 c -0.42671,-0.207835 -0.86029,-0.497243 -1.28711,-0.705078 l -0.91797,-5.802734 c -0.0568,-0.648856 -0.50379,-1.100038 -1.01172,-1.300782 -0.51502,-0.281859 -1.16674,-0.224404 -1.625,0.142578 l -4.59961,3.423828 c -0.41973,-0.126747 -0.84096,-0.251451 -1.3418,-0.371093 l -1.95507,-5.548828 c -0.21189,-0.553545 -0.66221,-1.00659 -1.24415,-1.119141 -0.58193,-0.112483 -1.13672,0.10271 -1.58789,0.550781 l -3.86718,4.341797 c -0.41301,-0.04565 -0.91446,-0.164584 -1.40821,-0.203125 l -2.9707,-4.972656 c -0.293,-0.546453 -0.80601,-0.82794 -1.38086,-0.859375 z m -10.02344,39.410156 c 3.22943,-3.94e-4 5.8462,3.902565 5.84571,8.716797 -4e-4,4.813295 -2.6169,8.715251 -5.84571,8.714844 -3.22788,-0.0014 -5.84531,-3.902935 -5.8457,-8.714844 -4.9e-4,-4.812847 2.6172,-8.715235 5.8457,-8.716797 z m 23.875,0.419922 c 3.22881,-3.94e-4 5.84727,3.901549 5.84766,8.714844 -3.9e-4,4.813295 -2.61885,8.713284 -5.84766,8.71289 -3.22788,-0.0014 -5.84335,-3.900981 -5.84375,-8.71289 4e-4,-4.81191 2.61587,-8.713282 5.84375,-8.714844 z"
         transform="matrix(0.73611111,0,0,0.73611111,19,19)" />
      <path
         d="m 199.50003,40.381771 c 0.0203,0.346199 -0.47119,0.255235 -0.47119,0.604608 0,10.164826 -12.27605,25.672713 -24.17557,28.669074 v 0.432169 C 190.6612,68.632143 208.75095,52.210645 209.1491,36.64079 l -9.65013,3.741256 z"
         style="fill:url(#SVGID_right_-6);stroke-width:0.263673"
         id="path16" />
      <path
         d="m 194.71912,41.632368 c 0.0201,0.346216 0.0315,0.693461 0.0315,1.043365 0,10.164826 -8.09445,23.861531 -19.99346,26.857635 v 0.432168 c 15.56827,-0.735648 27.89916,-16.617681 27.89916,-28.79301 0,-0.626225 -0.0338,-1.246908 -0.0978,-1.860471 l -7.83898,2.319798 z"
         style="fill:#e96d1f;stroke-width:0.263673"
         id="path18" />
      <path
         d="m 202.63404,39.167306 -2.0084,0.71772 c 0.0108,0.25364 0.0174,0.594313 0.0174,0.850338 0,10.868306 -9.82733,25.89367 -23.01119,28.244556 -0.85563,0.286889 -1.98757,0.547649 -2.88248,0.772826 v 0.431895 c 17.20566,-1.466012 29.29398,-18.94906 27.88597,-31.018398 z"
         style="fill:#d9541e;stroke-width:0.263673"
         id="path20" />
      <path
         d="m 172.65974,40.381515 c -0.0203,0.346198 0.47119,0.255235 0.47119,0.604607 0,10.164826 12.27605,25.672695 24.17558,28.669073 v 0.432152 C 181.49857,68.631887 163.4088,52.210371 163.01067,36.640532 l 9.65014,3.741239 z"
         style="fill:url(#SVGID_left_);stroke-width:0.263673"
         id="path22" />
      <path
         d="m 177.44066,41.632111 c -0.0201,0.346199 -0.0315,0.69346 -0.0315,1.043347 0,10.164827 8.09447,23.86155 19.99346,26.857653 v 0.432152 c -15.56826,-0.735631 -27.89914,-16.617665 -27.89914,-28.792994 0,-0.626225 0.0338,-1.246909 0.0978,-1.860472 l 7.83896,2.319782 z"
         style="fill:#a0ce67;stroke-width:0.263673"
         id="path24" />
      <path
         d="m 169.52573,39.167048 2.0084,0.717703 c -0.0108,0.253657 -0.0174,0.594314 -0.0174,0.850339 0,10.868305 9.82733,25.89367 23.01119,28.244573 0.85562,0.286871 1.98757,0.547648 2.88247,0.772826 v 0.431894 C 180.20474,68.718372 168.11643,51.235306 169.52444,39.165985 Z"
         style="fill:#439639;stroke-width:0.263673"
         id="path26" />
      <ellipse
         style="fill:#ffffff;stroke:none;stroke-width:6.40417;stroke-linecap:round;stroke-linejoin:round"
         id="path11508"
         cx="176.50238"
         cy="75.385139"
         rx="2.2604382"
         ry="3.2844894" />
      <ellipse
         style="fill:#ffffff;stroke:none;stroke-width:6.40417;stroke-linecap:round;stroke-linejoin:round"
         id="ellipse11510"
         cx="193.72012"
         cy="75.482712"
         rx="2.2604382"
         ry="3.2844894" />
    </g>
  </g>
</svg>
